<svg width="32" height="32" viewBox="0 0 32 32" fill="none" xmlns="http://www.w3.org/2000/svg">
    <path d="M16 29.333c7.364 0 13.333-5.97 13.333-13.333 0-7.364-5.97-13.334-13.333-13.334C8.636 2.666 2.667 8.636 2.667 16S8.637 29.333 16 29.333z" fill="#EAEAEA"/>
    <path d="m17.413 16 3.067-3.067a1.006 1.006 0 0 0 0-1.413 1.006 1.006 0 0 0-1.413 0L16 14.587l-3.067-3.067a1.006 1.006 0 0 0-1.413 0 1.006 1.006 0 0 0 0 1.413L14.587 16l-3.067 3.067a1.006 1.006 0 0 0 0 1.413c.2.2.453.293.707.293a.989.989 0 0 0 .706-.293L16 17.413l3.067 3.067c.2.2.453.293.706.293a.989.989 0 0 0 .707-.293 1.006 1.006 0 0 0 0-1.413L17.413 16z" fill="#282828"/>
</svg>
