<svg width="154" height="150" viewBox="0 0 154 150" fill="none" xmlns="http://www.w3.org/2000/svg">
<path d="M97.7199 33.7333H56.3123C55.3687 33.7344 54.464 34.1098 53.7968 34.777C53.1296 35.4442 52.7542 36.3488 52.7531 37.2924V129.321L52.2785 129.466L42.1206 132.577C41.6392 132.724 41.1192 132.673 40.6748 132.437C40.2304 132.201 39.8979 131.798 39.7502 131.317L9.53498 32.6204C9.38793 32.139 9.43805 31.6189 9.67431 31.1744C9.91057 30.7299 10.3136 30.3974 10.7949 30.25L26.4483 25.4569L71.828 11.5666L87.4813 6.77356C87.7195 6.70025 87.9698 6.67463 88.218 6.69817C88.4661 6.72172 88.7071 6.79396 88.9273 6.91077C89.1475 7.02758 89.3425 7.18665 89.5011 7.3789C89.6597 7.57115 89.7789 7.79279 89.8517 8.03115L97.5751 33.2587L97.7199 33.7333Z" fill="#F2F2F2"/>
<path d="M106.756 33.2584L97.4473 2.85345C97.2924 2.34685 97.0393 1.87572 96.7022 1.467C96.3652 1.05828 95.951 0.719979 95.4832 0.471418C95.0154 0.222858 94.5032 0.0689123 93.9758 0.018384C93.4485 -0.0321444 92.9164 0.0217348 92.4099 0.176937L70.4022 6.9133L25.025 20.806L3.01729 27.5448C1.99493 27.8587 1.13889 28.5654 0.637079 29.5099C0.135266 30.4543 0.028674 31.5593 0.340704 32.5822L32.1551 136.494C32.4086 137.32 32.9201 138.042 33.6145 138.556C34.3089 139.07 35.1496 139.348 36.0134 139.348C36.4132 139.349 36.8107 139.289 37.1926 139.171L52.2788 134.553L52.7534 134.406V133.91L52.2788 134.055L37.0526 138.717C36.1502 138.992 35.1755 138.898 34.3424 138.456C33.5092 138.013 32.8856 137.258 32.6084 136.356L0.796378 32.4422C0.659014 31.9954 0.61114 31.5259 0.655493 31.0605C0.699847 30.5952 0.835554 30.1431 1.05485 29.7303C1.27415 29.3175 1.57273 28.952 1.93349 28.6547C2.29425 28.3575 2.7101 28.1343 3.15724 27.998L25.1649 21.2592L70.5423 7.36888L92.5499 0.630145C92.8891 0.526644 93.2417 0.473871 93.5963 0.47354C94.3573 0.475249 95.0977 0.720585 95.7092 1.17362C96.3206 1.62664 96.7709 2.26356 96.9942 2.99108L106.26 33.2584L106.407 33.733H106.901L106.756 33.2584Z" fill="#3F3D56"/>
<path d="M29.2732 30.3273C28.8159 30.327 28.3707 30.1801 28.003 29.9083C27.6352 29.6364 27.3643 29.2538 27.2299 28.8167L24.1737 18.8339C24.0916 18.5657 24.0631 18.284 24.0898 18.0049C24.1166 17.7257 24.1981 17.4545 24.3296 17.2069C24.4612 16.9592 24.6403 16.7399 24.8566 16.5614C25.073 16.383 25.3224 16.2489 25.5905 16.1668L67.3372 3.38604C67.8788 3.22078 68.4638 3.27715 68.9638 3.54276C69.4639 3.80837 69.8381 4.26152 70.0044 4.80277L73.0607 14.7857C73.2258 15.3272 73.1694 15.9122 72.9038 16.4122C72.6382 16.9122 72.1851 17.2865 71.644 17.4528L29.8971 30.2336C29.695 30.2957 29.4847 30.3272 29.2732 30.3273Z" fill="#4A3AFF"/>
<path d="M45.2827 10.665C47.9036 10.665 50.0283 8.54033 50.0283 5.91942C50.0283 3.2985 47.9036 1.17383 45.2827 1.17383C42.6618 1.17383 40.5371 3.2985 40.5371 5.91942C40.5371 8.54033 42.6618 10.665 45.2827 10.665Z" fill="#4A3AFF"/>
<path d="M45.2834 8.92466C46.943 8.92466 48.2884 7.57925 48.2884 5.91961C48.2884 4.25996 46.943 2.91455 45.2834 2.91455C43.6237 2.91455 42.2783 4.25996 42.2783 5.91961C42.2783 7.57925 43.6237 8.92466 45.2834 8.92466Z" fill="white"/>
<path d="M143.157 138.136H62.9563C62.4216 138.136 61.909 137.923 61.5309 137.545C61.1528 137.167 60.9401 136.654 60.9395 136.119V40.0213C60.9401 39.4865 61.1527 38.9739 61.5308 38.5958C61.9089 38.2177 62.4216 38.005 62.9563 38.0044H143.157C143.691 38.005 144.204 38.2177 144.582 38.5958C144.96 38.9739 145.173 39.4866 145.174 40.0213V136.119C145.173 136.654 144.96 137.167 144.582 137.545C144.204 137.923 143.691 138.136 143.157 138.136Z" fill="#E6E6E6"/>
<path d="M106.259 33.2583H56.3121C55.2427 33.2598 54.2176 33.6853 53.4615 34.4414C52.7053 35.1976 52.2798 36.2227 52.2783 37.2921V134.055L52.7529 133.91V37.2921C52.754 36.3484 53.1294 35.4438 53.7966 34.7766C54.4638 34.1094 55.3685 33.734 56.3121 33.7329H106.407L106.259 33.2583ZM149.8 33.2583H56.3121C55.2427 33.2598 54.2176 33.6853 53.4615 34.4414C52.7053 35.1976 52.2798 36.2227 52.2783 37.2921V145.966C52.2798 147.035 52.7053 148.061 53.4615 148.817C54.2176 149.573 55.2427 149.998 56.3121 150H149.8C150.87 149.998 151.895 149.573 152.651 148.817C153.407 148.061 153.832 147.035 153.834 145.966V37.2921C153.832 36.2227 153.407 35.1976 152.651 34.4414C151.895 33.6853 150.87 33.2598 149.8 33.2583ZM153.359 145.966C153.358 146.91 152.983 147.814 152.316 148.481C151.648 149.149 150.744 149.524 149.8 149.525H56.3121C55.3685 149.524 54.4638 149.149 53.7966 148.481C53.1294 147.814 52.754 146.91 52.7529 145.966V37.2921C52.754 36.3484 53.1294 35.4438 53.7966 34.7766C54.4638 34.1094 55.3685 33.734 56.3121 33.7329H149.8C150.744 33.734 151.648 34.1094 152.316 34.7766C152.983 35.4438 153.358 36.3484 153.359 37.2921V145.966Z" fill="#3F3D56"/>
<path d="M124.887 43.6986H81.2273C80.6611 43.698 80.1183 43.4728 79.718 43.0724C79.3176 42.6721 79.0924 42.1293 79.0918 41.5631V31.1228C79.0924 30.5566 79.3176 30.0138 79.718 29.6135C80.1183 29.2131 80.6611 28.9879 81.2273 28.9873H124.887C125.453 28.9879 125.996 29.2131 126.396 29.6135C126.796 30.0138 127.022 30.5566 127.022 31.1228V41.5631C127.022 42.1293 126.796 42.6721 126.396 43.0724C125.996 43.4728 125.453 43.698 124.887 43.6986Z" fill="#4A3AFF"/>
<path d="M103.056 29.6994C105.677 29.6994 107.802 27.5748 107.802 24.9538C107.802 22.3329 105.677 20.2083 103.056 20.2083C100.435 20.2083 98.3105 22.3329 98.3105 24.9538C98.3105 27.5748 100.435 29.6994 103.056 29.6994Z" fill="#4A3AFF"/>
<path d="M103.057 27.8442C104.653 27.8442 105.947 26.5501 105.947 24.9537C105.947 23.3574 104.653 22.0632 103.057 22.0632C101.46 22.0632 100.166 23.3574 100.166 24.9537C100.166 26.5501 101.46 27.8442 103.057 27.8442Z" fill="white"/>
</svg>
