<svg width="32" height="32" viewBox="0 0 32 32" fill="none" xmlns="http://www.w3.org/2000/svg">
<path opacity="0.4" d="M15.9997 2.66658C8.63588 2.66658 2.66634 8.63612 2.66634 15.9999C2.66634 23.3637 8.63588 29.3333 15.9997 29.3333C23.3635 29.3333 29.333 23.3637 29.333 15.9999C29.333 8.63612 23.3635 2.66658 15.9997 2.66658Z" fill="#BBC0D4"/>
<path d="M16 13.6666C15.4533 13.6666 15 14.1199 15 14.6666L15 21.3333C15 21.8799 15.4533 22.3333 16 22.3333C16.5467 22.3333 17 21.8799 17 21.3333L17 14.6666C17 14.1199 16.5467 13.6666 16 13.6666Z" fill="#253573"/>
<path d="M14.773 11.1734C14.8397 11.3334 14.933 11.4801 15.053 11.6134C15.1863 11.7334 15.333 11.8267 15.493 11.8934C15.813 12.0267 16.1863 12.0267 16.5063 11.8934C16.6663 11.8267 16.813 11.7334 16.9463 11.6134C17.0663 11.4801 17.1597 11.3334 17.2263 11.1734C17.293 11.0134 17.333 10.8401 17.333 10.6667C17.333 10.4934 17.293 10.3201 17.2263 10.1601C17.1597 9.98674 17.0663 9.85341 16.9463 9.72007C16.813 9.60007 16.6663 9.50674 16.5063 9.44007C16.3463 9.37341 16.173 9.33341 15.9997 9.33341C15.8263 9.33341 15.653 9.37341 15.493 9.44007C15.333 9.50674 15.1863 9.60007 15.053 9.72007C14.933 9.85341 14.8397 9.98674 14.773 10.1601C14.7063 10.3201 14.6663 10.4934 14.6663 10.6667C14.6663 10.8401 14.7063 11.0134 14.773 11.1734Z" fill="#253573"/>
</svg>
