<svg width="390" height="312" viewBox="0 0 390 312" fill="none" xmlns="http://www.w3.org/2000/svg">
<g filter="url(#filter0_d_972_43074)">
<path d="M412.472 214.787C353.88 296.32 230.108 329.393 108.382 293.772C44.0289 274.941 -18.0191 237.209 -48.7686 164.148C-103.737 33.5429 11.6757 -8.16904 87.1428 -21.4631C123.635 -27.8914 158.004 -38.6896 189.411 -53.3913C245.914 -79.841 345.93 -103.278 421.348 6.89697C476.011 86.7521 451.5 160.478 412.472 214.787Z" fill="#1C2856"/>
</g>
<path d="M72.7761 33.8881C72.6122 32.5923 72.2807 31.3233 71.79 30.1129C71.7274 29.884 71.6178 29.6706 71.4682 29.4864C71.3187 29.3022 71.1324 29.1511 70.9212 29.0429C70.6389 28.9695 70.343 28.9662 70.0592 29.0332L65.6334 29.7104C65.2629 29.7273 64.9082 29.8652 64.6236 30.1028C64.0471 30.709 64.6147 31.6852 64.5971 32.5215C64.5773 33.462 63.7417 34.2253 62.8355 34.4779C61.9106 34.6648 60.9565 34.6529 60.0364 34.4432L53.8479 33.4815C55.6705 32.8996 57.2928 31.817 58.5296 30.3573C59.344 29.3925 59.7773 27.5913 58.6003 27.1344C58.2506 27.0385 57.8859 27.0092 57.5254 27.0481C54.7215 27.0699 52.5151 24.7289 49.8903 23.7429C48.2103 23.1527 46.3867 23.1087 44.6802 23.6174C42.9738 24.1262 41.4719 25.1614 40.3893 26.5752L43.686 26.7342C43.9962 26.717 44.3037 26.7991 44.5641 26.9684C45.2866 27.562 44.3884 28.7022 44.4902 29.6317C44.6224 30.8393 46.2259 31.0972 47.4346 31.2193C48.6434 31.3414 50.1768 32.3235 49.5954 33.3902C43.5201 35.4828 37.338 29.2997 30.9577 30.0608C29.3429 30.2534 27.8181 30.8878 26.2415 31.2867C16.6106 33.7234 6.654 27.2219 -3.18448 28.5988C-5.37169 28.9717 -7.52135 29.5386 -9.60796 30.2929C-10.947 30.7326 -12.3437 31.2077 -13.3166 32.2274C-14.2896 33.2471 -14.6598 34.9908 -13.7381 36.057C-16.2786 36.2662 -18.836 36.0231 -21.2916 35.339C-20.6275 35.7082 -20.0751 36.2492 -19.6923 36.9054C-19.3095 37.5617 -19.1104 38.3088 -19.1159 39.0685C-23.0826 39.7154 -26.9441 40.8928 -30.5968 42.5692C-29.9151 43.7029 -29.1188 44.7636 -28.2205 45.7347L-33.2422 48.9608C-31.5456 49.3883 -30.6685 51.7017 -31.6551 53.1465C-29.896 52.3639 -28.8057 50.3394 -26.9246 49.929C-25.6923 49.6601 -24.4383 50.1642 -23.2692 50.6378C-22.1001 51.1114 -20.8152 51.5706 -19.6049 51.2152C-18.3947 50.8597 -17.502 49.2905 -18.271 48.2906C-13.0981 46.7813 -7.75196 45.9461 -2.36516 45.8056C-1.94958 45.7534 -1.52812 45.8334 -1.16053 46.0342C-0.459305 46.5207 -0.643799 47.5715 -0.681568 48.4241C-0.719341 49.2767 -0.0548134 50.3973 0.707226 50.013C-0.189316 50.7904 0.577106 52.254 1.43724 53.0715C2.29738 53.889 3.3341 55.0171 2.8075 56.0805C2.67006 56.358 2.43695 56.5801 2.30471 56.8602C1.91438 57.6869 2.53413 58.6506 3.26514 59.1996C3.99614 59.7486 4.89155 60.1323 5.39934 60.8925C5.90713 61.6527 5.67653 62.9833 4.76852 63.0895L2.18764 59.8126C1.30586 60.7269 0.701344 61.8725 0.444199 63.1164C3.18101 65.3537 3.59267 69.9075 1.30143 72.5993C0.13055 73.9749 -1.53453 74.8108 -2.98778 75.8837C-4.44104 76.9567 -5.78576 78.4846 -5.78211 80.291C-5.77579 83.4118 -6.03079 86.3112 -4.86133 89.2047C-2.70482 94.54 -0.215061 99.7344 2.59323 104.757C3.3307 106.076 4.2838 107.522 5.77776 107.749C3.88969 103.153 2.19004 98.4847 0.678837 93.7452C1.66312 93.7491 2.80058 93.8272 3.37759 94.6247C3.85539 95.285 3.75275 96.1827 3.90121 96.9842C4.09005 97.7606 4.40493 98.5009 4.83332 99.1754L13.8494 115.236C14.5968 116.567 15.4542 117.996 16.8826 118.535C17.7959 118.88 18.8526 118.815 19.6932 119.312C20.3521 119.701 20.7959 120.391 21.4676 120.757C23.3668 121.794 26.008 119.806 27.7829 121.044C28.2904 121.397 28.6133 121.959 29.0809 122.364C30.7202 123.784 33.4094 122.834 35.3018 123.893C36.5214 124.576 37.1535 125.941 37.804 127.178C39.4335 130.276 42.0701 133.312 45.5622 133.558C46.6591 133.636 47.7796 133.428 48.8519 133.672C49.9242 133.916 50.9797 134.852 50.8076 135.938C50.5125 137.8 51.4325 139.839 51.1854 141.708C50.7353 145.112 45.9063 146.608 45.4915 150.017C45.4007 150.764 45.5428 151.534 45.3651 152.265C45.1473 153.16 44.4748 153.889 44.2359 154.779C43.7831 156.466 44.9914 158.144 46.3189 159.279C47.6464 160.414 49.2299 161.392 49.9556 162.981C50.7227 164.66 50.3459 166.617 50.5954 168.446C51.1401 172.439 54.5887 175.399 58.1379 177.308C59.2192 177.889 60.3803 178.452 61.0802 179.461C61.9937 180.777 61.9027 182.513 62.2078 184.086C62.9548 187.939 66.1983 191.114 66.2904 195.037C66.3559 197.826 64.8057 200.356 63.8796 202.988C63.0115 205.509 62.6973 208.187 62.9586 210.841C63.2199 213.494 64.0504 216.06 65.3936 218.364C66.0863 219.533 66.9149 220.636 67.4049 221.904C68.2794 224.167 67.9956 226.74 68.8019 229.028C69.8679 232.053 72.797 234.551 72.5167 237.746C73.8465 240.508 76.7829 241.865 79.7357 242.687L85.0277 244.16C86.041 244.442 87.0998 244.726 88.1316 244.522C89.1634 244.318 90.1481 243.461 90.1215 242.409C87.5264 241.824 84.848 241.202 82.7087 239.62C80.5695 238.039 79.104 235.223 79.9157 232.689C80.2921 231.515 81.0928 230.158 80.3315 229.187C79.8957 228.632 79.0987 228.486 78.607 227.979C77.8402 227.188 78.1037 225.86 78.6549 224.906C79.2062 223.952 80.003 223.1 80.2254 222.021C80.3376 221.417 80.2626 220.794 80.0104 220.234C79.7583 219.674 79.3409 219.205 78.8144 218.889C79.7957 218.519 80.6881 217.946 81.4338 217.209C82.1226 216.422 82.4408 215.209 81.8989 214.315C83.5081 214.519 85.4078 214.619 86.4641 213.388C87.3076 212.405 87.2497 210.936 86.9164 209.684C86.5831 208.432 86.0197 207.217 86.0022 205.921C89.7142 206.097 93.4343 205.971 97.1258 205.544C96.592 203.746 95.3789 202.227 93.7439 201.309C95.4158 201.026 96.9389 199.024 97.4671 197.413C97.9953 195.802 97.8606 194.047 97.5341 192.383C97.4087 191.954 97.3915 191.501 97.4841 191.065C97.6724 190.465 98.2618 190.099 98.8071 189.786L107.106 185.019C107.601 184.771 108.05 184.44 108.433 184.04C109.302 183.019 109.173 181.477 108.728 180.212C108.283 178.946 107.57 177.757 107.398 176.426C106.886 172.448 111.144 169.594 112.582 165.849C113.146 164.379 113.261 162.781 113.37 161.211C113.487 159.524 113.496 157.565 112.201 156.478C110.959 155.436 109.02 155.669 107.72 154.7C106.529 153.811 106.119 152.085 104.818 151.368C103.636 150.716 102.154 151.13 100.84 150.824C98.5265 150.284 97.0704 147.617 94.7074 147.371C93.3741 147.231 91.8652 147.883 90.7724 147.107C89.8095 146.422 89.7709 145.047 89.5876 143.88C89.2664 142.067 88.3972 140.395 87.0969 139.091C85.7967 137.786 84.128 136.912 82.3155 136.585C80.9408 136.364 79.4445 136.448 78.275 135.693C77.0908 134.928 76.5479 133.495 75.6177 132.436C74.1185 130.729 71.7574 130.122 69.5455 129.602L60.5488 127.487C58.9516 127.112 56.893 126.912 56.0359 128.311C55.7822 128.844 55.6026 129.409 55.5021 129.99C55.181 131.042 54.5347 131.965 53.6562 132.626C52.7776 133.287 51.712 133.653 50.6125 133.671C49.8586 132.385 48.637 131.439 47.2028 131.032C46.2905 130.778 45.314 130.75 44.4439 130.376C43.9701 130.145 43.5484 129.819 43.2047 129.419C42.861 129.019 42.6026 128.553 42.4452 128.05C42.2878 127.547 42.2347 127.017 42.2892 126.492C42.3438 125.968 42.5048 125.46 42.7624 125C43.2811 124.077 43.4814 123.008 43.3324 121.959C43.1834 120.911 42.6934 119.94 41.9381 119.198C40.4081 117.824 38.1949 117.492 36.1433 117.629C35.606 116.457 36.5044 115.134 37.4725 114.282C38.4407 113.43 39.6163 112.593 39.8271 111.32C40.1587 109.319 37.6051 107.799 35.6663 108.396C33.7274 108.992 32.4899 110.876 31.6719 112.732C31.2025 113.797 30.8035 114.919 30.0631 115.817C29.3228 116.715 28.1305 117.358 27.0028 117.07C25.4063 116.662 24.7897 114.765 24.4364 113.156C23.9623 110.996 23.4855 108.807 23.5848 106.598C23.6841 104.39 24.4287 102.122 26.0573 100.627C28.7112 98.1902 32.7825 98.4291 36.3641 98.8177C35.5179 97.8643 35.7271 96.2575 36.6324 95.3602C37.1104 94.9355 37.6847 94.6339 38.3056 94.4813C38.9265 94.3288 39.5752 94.33 40.1955 94.4848C41.2747 94.7095 42.247 95.2908 42.9557 96.1352C43.9735 97.3761 44.263 99.0516 45.0323 100.46C45.8016 101.869 47.5315 103.07 48.9474 102.314C50.1703 101.662 50.3644 99.9658 50.0601 98.6134C49.7557 97.261 49.1092 95.9459 49.2195 94.5641C49.4299 91.9273 52.1631 90.3402 54.575 89.2543C56.987 88.1684 59.7488 86.708 60.1309 84.0906C60.144 83.5782 60.2406 83.0713 60.4171 82.59C60.6845 82.1649 61.0563 81.8153 61.497 81.5744C68.5363 76.9224 75.6926 72.2136 83.7382 69.6717C84.1568 69.5394 84.2059 69.6864 84.6325 69.5828C85.2295 69.2378 84.8339 68.2832 84.2615 67.8987C83.6891 67.5142 82.924 67.2193 82.7788 66.5452C82.6721 66.0496 82.964 65.5631 83.0399 65.0619C83.2262 63.8303 81.7529 62.6932 80.6087 63.1856C79.9625 62.3297 81.2413 61.3352 82.2753 61.0505C85.3803 60.196 88.5676 59.6753 91.7832 59.4973C92.1542 59.4383 92.5344 59.503 92.8651 59.6813C93.4051 60.0554 93.3361 60.9135 92.9534 61.4475C92.5706 61.9815 91.9753 62.3167 91.4983 62.7686C90.9772 63.2762 90.6055 63.9173 90.4238 64.6217C90.2421 65.3262 90.2574 66.067 90.4681 66.7634C92.1467 67.6173 93.9717 68.4963 95.8309 68.1954C97.6901 67.8946 99.3403 65.8057 98.4664 64.1373C97.6526 62.5837 95.2081 62.2333 94.7877 60.5306C94.2956 58.537 97.1177 56.7639 96.482 54.8114C96.2035 53.9561 95.3511 53.4527 94.6971 52.8352C93.9247 52.0782 93.3992 51.1052 93.1898 50.044C92.9804 48.9829 93.0968 47.8833 93.5237 46.8895C92.4583 47.0769 91.3636 47.0061 90.3312 46.6831C89.2989 46.36 88.3591 45.7941 87.5906 45.0328C86.1715 43.6007 85.0393 41.3414 83.0241 41.4055C81.1749 41.4643 79.5821 43.6217 77.8529 42.9635C77.4275 42.8016 76.979 42.472 76.5668 42.6651C76.4317 42.7528 76.3183 42.8701 76.2352 43.0081C76.1521 43.146 76.1014 43.3011 76.087 43.4615C75.6476 45.5624 76.4035 47.9561 75.2585 49.7715C74.0125 51.7471 71.1304 52.021 69.6198 53.8024C68.7999 54.7694 68.4822 56.0725 67.7285 57.092C66.9747 58.1116 65.375 58.7598 64.4705 57.8713C64.9151 56.9574 65.0365 55.9198 64.8149 54.928C64.5933 53.9362 64.0418 53.0488 63.2506 52.411C62.4109 51.8632 61.5056 51.4228 60.5562 51.1004C59.4953 50.6514 58.486 50.0889 57.546 49.4228C57.0752 49.1387 56.6926 48.7294 56.441 48.2404C56.242 47.6281 56.2688 46.9648 56.5165 46.3706C56.9752 45.0556 57.7843 43.8908 58.8566 43.0021C59.9288 42.1134 61.2235 41.5344 62.6007 41.3277C63.8051 41.1639 65.2067 41.2216 66.0037 40.304C66.4254 39.8185 66.6467 39.0844 67.2588 38.8872C67.6504 38.8085 68.0568 38.8586 68.4176 39.0299L72.9127 40.6121C73.4143 40.8385 73.9663 40.9298 74.514 40.877C74.7856 40.8404 75.0333 40.7024 75.2075 40.4908C75.3816 40.2792 75.4692 40.0096 75.4528 39.736C75.3092 38.9895 74.1605 38.6313 74.2651 37.8784C74.3236 37.6344 74.4548 37.4138 74.6413 37.246C76.2635 35.5193 78.2474 34.1727 80.451 33.3025C82.6546 32.4323 85.0233 32.0601 87.3875 32.2125C87.9549 33.1443 87.0576 34.2478 86.311 35.0432C85.5644 35.8387 84.9644 37.26 85.8673 37.8723C86.2373 38.0612 86.6489 38.1539 87.0642 38.1419C88.1709 38.2917 89.2464 38.6179 90.2498 39.1081C91.8032 39.7841 93.3267 40.5237 94.8204 41.327C94.6884 40.3421 94.5625 39.3046 94.9358 38.3837C95.3091 37.4628 96.37 36.7405 97.2967 37.0992C98.1898 37.4448 98.6478 38.6273 99.5993 38.7357C100.869 38.8802 101.369 37.0051 100.839 35.8429C100.309 34.6807 99.2594 33.7076 99.1718 32.4331C99.1127 31.5734 99.4399 30.5071 98.7531 29.9865C98.5087 29.8302 98.2313 29.7329 97.9428 29.7023L80.7948 26.5468C79.7765 26.3594 78.3053 26.503 78.2601 27.5374C78.2349 28.1148 78.7507 28.686 78.5222 29.2169C78.2784 29.7835 77.4775 29.7317 76.8941 29.9321C75.9889 30.243 75.5347 31.3179 75.6217 32.271C75.7808 33.2181 76.1476 34.1182 76.6957 34.9068C75.5803 34.4403 73.8915 34.3546 72.7761 33.8881Z" fill="#BBC0D4"/>
<path d="M59.0937 19.332C58.0124 18.9741 56.8471 18.9574 55.756 19.2842C54.6649 19.611 53.7006 20.2654 52.994 21.1587C52.7116 21.5305 52.4745 22.043 52.7109 22.4455C53.0498 23.0226 53.9133 22.7947 54.5499 22.5882C55.4857 22.2539 56.5042 22.2296 57.4548 22.5189C58.0526 22.7242 58.5874 23.0869 59.1878 23.2844C59.4801 23.4067 59.8001 23.4471 60.1136 23.4012C60.4271 23.3554 60.7222 23.2252 60.9672 23.0244C61.3793 22.6041 61.4052 21.9508 61.4059 21.3622C61.4345 21.1652 61.4187 20.9644 61.3598 20.7743C61.3009 20.5842 61.2002 20.4097 61.0652 20.2635C60.8249 20.1243 60.5549 20.0444 60.2775 20.0305C59.6562 19.9155 59.0946 19.5873 58.6894 19.1026" fill="#BBC0D4"/>
<path d="M65.2775 17.6115C65.0355 17.5983 64.7942 17.6476 64.5768 17.7546C64.3593 17.8617 64.1731 18.0228 64.036 18.2227C63.8988 18.4225 63.8154 18.6542 63.7937 18.8956C63.7721 19.137 63.8129 19.3799 63.9122 19.6009C64.6554 19.8036 65.4318 19.8542 66.195 19.7498C66.5757 19.6907 66.9303 19.5202 67.2143 19.2599C67.4982 18.9995 67.6987 18.661 67.7906 18.2869C66.892 18.4504 65.9648 18.2733 65.1897 17.7901" fill="#BBC0D4"/>
<path d="M86.0227 14.7352C84 15.1653 82.0351 15.8328 80.1689 16.7238C81.0487 17.0619 81.7966 17.6738 82.3023 18.4691C82.808 19.2644 83.0449 20.2012 82.978 21.1413C82.8991 21.5022 82.9082 21.8769 83.0047 22.2335C83.2197 22.7547 83.8426 22.9503 84.3903 23.0841C85.3744 23.3835 86.4019 23.5147 87.4296 23.472C87.9436 23.4451 88.4429 23.2904 88.8821 23.022C89.3214 22.7536 89.6868 22.3799 89.9453 21.9347C90.0942 21.5121 90.2689 21.0992 90.4684 20.698C91.7812 18.6986 95.6813 21.1162 97.0908 19.1837C97.5873 18.503 97.5419 17.4783 98.1892 16.9389C98.524 16.7039 98.912 16.5558 99.3183 16.508C102.153 15.9448 105.016 15.537 107.895 15.2865C109.259 15.1677 111.037 14.6779 111.049 13.3086C105.911 12.2995 100.583 13.0162 95.8939 15.3474C94.2045 16.1936 91.9701 17.9735 90.3428 16.8517C89.7335 16.4317 89.7637 15.3006 88.9251 14.8283C88.0678 14.3455 86.9329 14.5419 86.0227 14.7352Z" fill="#BBC0D4"/>
<path d="M102.826 17.8767L105.238 18.3402C104.794 18.3205 104.351 18.3958 103.939 18.5609C103.526 18.726 103.154 18.9773 102.846 19.2978C102.538 19.6184 102.302 20.0009 102.154 20.4198C102.005 20.8388 101.948 21.2845 101.986 21.7274C104.245 22.4819 106.707 21.7477 109.086 21.848C111.466 21.9483 114.234 23.6478 113.828 25.9944C113.705 26.7039 113.295 27.4129 113.508 28.1007C113.658 28.5828 114.083 28.9249 114.323 29.3689C114.823 30.2941 114.423 31.4643 113.792 32.3053C113.16 33.1463 112.312 33.8174 111.757 34.7112C110.379 36.9341 111.162 39.808 111.983 42.2914C112.221 43.2297 112.659 44.1053 113.268 44.8576C114.485 46.1511 116.467 46.2636 118.243 46.2895C119.535 46.3084 121.016 46.2445 121.833 45.2433C122.9 43.936 122.154 41.8965 122.856 40.3623C123.494 38.969 125.12 38.3712 126.592 37.9472C129.29 37.1705 132.04 36.5102 134.59 35.337C137.758 33.8803 140.718 31.61 144.199 31.4225C145.175 31.3699 146.176 31.4851 147.117 31.2176C148.058 30.95 148.951 30.1366 148.88 29.1612C148.819 28.3278 148.114 27.7157 147.563 27.0875C147.012 26.4592 146.579 25.493 147.086 24.8283L156.21 23.124C155.563 21.3614 155.06 19.0399 156.546 17.8926C157.082 17.4786 157.8 17.3132 158.257 16.8127C159.035 15.9597 158.644 14.4904 157.745 13.765C156.847 13.0396 155.632 12.8712 154.482 12.7756C150.481 12.4433 146.457 12.6629 142.448 12.8826C134.612 13.3121 126.776 13.7417 118.94 14.1712C117.363 14.2577 115.542 14.1256 114.095 14.6637C112.87 15.1193 111.999 15.9557 110.598 16.2495C108.012 16.7919 105.167 16.4249 102.826 17.8767Z" fill="#BBC0D4"/>
<path d="M146.036 36.941C145.79 36.9021 145.539 36.9591 145.334 37.1002C145.199 37.2494 145.118 37.4404 145.106 37.6416C144.95 38.5295 145.135 39.4435 145.625 40.2005C145.874 40.5718 146.218 40.8697 146.622 41.0631C147.025 41.2564 147.473 41.3383 147.919 41.3002C149.005 41.1617 149.805 40.2352 150.804 39.783C152.342 39.0868 158.878 38.0015 154.357 35.5591C152.799 34.7174 151.792 35.4604 150.564 36.0147C149.167 36.7294 147.602 37.0497 146.036 36.941Z" fill="#BBC0D4"/>
<path d="M185.634 16.4975C185.106 16.7132 184.665 17.0976 184.378 17.5907C184.246 17.8411 184.216 18.1326 184.293 18.405C184.37 18.6774 184.548 18.9097 184.792 19.0539C184.989 19.1254 185.198 19.1586 185.408 19.1516L187.554 19.2158C188.466 19.243 189.605 19.4372 189.85 20.3159C190.032 20.9684 189.625 21.8068 190.116 22.2731C190.327 22.4364 190.58 22.5353 190.846 22.5579C191.553 22.7395 192.292 22.7634 193.009 22.6277C194.571 22.2088 193.75 21.2556 194.242 20.4069C194.995 19.1083 194.864 19.8944 196.19 19.1501C197.17 18.6005 198.435 17.6034 197.618 16.2025C196.196 13.7663 187.732 15.4509 185.634 16.4975Z" fill="#BBC0D4"/>
<path d="M227.999 15.2722L226.752 15.4385C223.942 15.8136 221.115 16.1921 218.408 17.0361C219.58 17.4994 220.809 17.8011 222.062 17.9328C222.752 17.9666 223.438 18.064 224.109 18.2238C225.305 18.5797 226.51 19.4988 227.665 19.028C228.381 18.7361 228.615 17.9903 229.208 17.5951C229.618 17.3222 231.172 16.8805 231.345 16.6051C232.75 14.3783 229.078 15.1282 227.999 15.2722Z" fill="#BBC0D4"/>
<path d="M233.472 20.9372C231.807 21.8682 230.262 22.9994 228.872 24.3056C228.287 24.8561 227.688 25.5408 227.742 26.3427C227.812 27.4086 228.948 28.0269 229.931 28.4434L233.916 30.1303C234.399 29.449 233.957 28.5086 233.457 27.8391C232.958 27.1696 232.364 26.395 232.585 25.5894C232.836 24.67 233.957 24.3567 234.897 24.1983C236.429 23.9403 240.561 23.9609 240.064 21.4927C239.479 18.5843 235.009 20.0779 233.472 20.9372Z" fill="#BBC0D4"/>
<path d="M232.67 185.525C232.291 186.623 232.255 187.917 232.911 188.875C233.647 189.951 235.121 190.352 236.395 190.08C237.665 189.742 238.796 189.014 239.631 187.999C240.394 187.149 241.021 186.187 241.491 185.146C242.148 183.524 242.611 181.83 242.871 180.099L244.108 173.604C244.384 172.152 244.374 167.702 241.705 169.152C240.977 169.548 239.289 172.676 238.525 173.562C237.148 175.161 236.966 176.712 236.242 178.648C235.334 181.074 233.509 183.095 232.67 185.525Z" fill="#BBC0D4"/>
<path d="M373.589 218.764C372.716 218.423 371.869 218.02 371.054 217.557C370.237 219.803 369.802 222.171 369.769 224.561L375.743 221.181C376.641 220.672 377.66 219.966 377.64 218.933C377.649 218.806 377.622 218.678 377.564 218.565C377.506 218.451 377.418 218.355 377.31 218.287C377.177 218.233 377.033 218.217 376.891 218.238C376.006 218.311 375.198 218.747 374.362 219.05C373.527 219.354 372.549 219.514 371.783 219.064" fill="#BBC0D4"/>
<path d="M394.279 156.537C393.47 156.734 392.633 156.783 391.806 156.683C390.434 156.431 389.366 155.396 388.258 154.548C385.624 152.542 382.422 151.424 379.112 151.352C376.101 151.296 373.062 152.112 370.104 151.542C370.298 152.617 371.217 153.423 372.198 153.902C373.18 154.381 374.262 154.622 375.248 155.091C376.827 155.85 378.079 157.153 378.775 158.761C379.093 159.502 379.293 160.309 379.774 160.956C380.757 162.278 382.62 162.569 384.265 162.461C386.409 162.32 388.648 161.703 390.643 162.502C392.169 163.113 393.261 164.449 394.535 165.487C395.809 166.526 397.603 167.296 399.066 166.547C397.547 166.055 396.224 165.09 395.292 163.793C394.359 162.496 393.866 160.936 393.883 159.338C395.318 159.47 399.451 159.419 399.228 156.981C399.039 154.915 395.511 156.314 394.279 156.537Z" fill="#BBC0D4"/>
<path d="M375.507 173.348C375.762 171.951 377.155 170.717 376.721 169.364C376.421 168.429 375.337 167.967 374.355 167.944C373.373 167.921 372.408 168.214 371.426 168.241C370.787 168.207 370.146 168.217 369.508 168.269C367.559 168.589 366.358 170.632 364.521 171.358C363.404 171.8 362.149 171.716 360.988 172.021C358.351 172.714 356.682 175.206 354.839 177.215C351.861 180.446 347.981 182.709 343.702 183.71C342.203 184.057 340.591 184.279 339.399 185.253C337.821 186.542 337.433 188.753 337.082 190.76C336.112 196.304 334.629 201.746 332.653 207.016L338.914 207.816C340.105 207.968 341.338 208.116 342.485 207.764C343.319 207.449 344.108 207.029 344.834 206.513C347.623 204.781 350.744 203.655 353.995 203.206C355.635 202.981 357.354 202.94 358.892 203.549C360.431 204.158 361.751 205.54 361.88 207.19C362.545 206.983 363.254 206.961 363.932 207.126C364.609 207.29 365.228 207.636 365.724 208.125C366.705 209.124 367.347 210.406 367.56 211.789C367.725 212.646 367.89 213.672 368.685 214.032C369.333 214.325 370.077 214.009 370.786 213.952C373.193 213.76 375.191 216.567 377.557 216.083C380.095 215.565 380.718 211.765 383.193 211.003C384.615 210.566 386.609 211.098 387.29 209.775C387.89 208.61 386.693 207.264 386.816 205.959C386.968 204.352 388.864 203.67 390.326 202.984C395.364 200.62 397.755 193.838 395.314 188.837C393.867 185.873 391.021 183.541 390.495 180.285C390.09 177.78 391.078 174.86 389.481 172.888C388.668 171.885 387.293 171.331 386.81 170.135C386.505 169.381 386.628 168.527 386.464 167.731C386.3 166.935 385.606 166.103 384.82 166.309C382.539 166.908 381.811 173.954 380.59 175.666C378.734 178.269 374.922 176.555 375.507 173.348Z" fill="#BBC0D4"/>
<path d="M333.347 159.198C332.567 158.98 331.716 158.764 330.969 159.077C330.222 159.389 329.786 160.485 330.386 161.03C335.075 160.847 339.794 160.666 344.443 161.302C349.8 162.036 355.102 163.854 360.483 163.319C357.409 162.412 354.285 161.687 351.126 161.148L345.859 160.141C344.445 159.846 343.018 159.625 341.581 159.481C338.576 159.232 336.301 160.027 333.347 159.198Z" fill="#BBC0D4"/>
<path d="M338.042 142.865C337.653 142.833 337.171 142.805 336.969 143.14C336.777 143.459 336.997 143.882 336.894 144.241C336.752 144.73 336.111 144.856 335.605 144.789C335.1 144.722 334.553 144.563 334.105 144.806C333.878 144.961 333.707 145.186 333.619 145.446C333.53 145.707 333.528 145.989 333.613 146.251C333.797 146.77 334.093 147.242 334.481 147.633C335.143 148.467 335.898 149.225 336.73 149.889C338.342 151.079 340.526 151.652 341.541 153.38C341.684 153.714 341.904 154.011 342.183 154.244C342.671 154.553 343.306 154.318 343.831 154.078L345.67 153.238C346.001 153.119 346.297 152.917 346.53 152.653C346.95 152.083 346.692 151.272 346.339 150.658C345.987 150.044 345.535 149.408 345.611 148.704C345.746 147.449 347.36 146.968 348.024 145.894C348.693 144.811 348.258 143.416 348.335 142.145C348.425 140.659 349.359 138.727 347.856 137.616C346.58 136.673 345.359 137.545 344.443 138.586C342.51 140.783 341.596 143.162 338.042 142.865Z" fill="#BBC0D4"/>
<path d="M349.207 120.664C349.835 121.867 351.144 122.584 351.828 123.755C352.571 125.024 352.486 126.664 353.291 127.894C354.117 129.156 355.78 129.826 356.243 131.261C356.749 132.829 355.601 134.733 356.516 136.103C356.687 136.327 356.902 136.513 357.148 136.649C357.394 136.785 357.666 136.869 357.946 136.895C358.227 136.92 358.509 136.888 358.776 136.798C359.043 136.709 359.288 136.566 359.497 136.377C359.883 135.957 360.089 135.403 360.072 134.833C360.055 134.263 359.817 133.722 359.407 133.326C358.865 132.832 358.087 132.619 357.635 132.042C357.4 131.709 357.243 131.327 357.176 130.925C356.93 129.764 356.969 128.561 357.291 127.419C357.412 127.13 357.443 126.81 357.38 126.502C357.176 125.911 356.375 125.869 355.812 125.594C354.535 124.971 354.566 123.168 354.789 121.764C354.641 122.699 351.312 121.109 350.963 120.58C350.271 119.529 350.648 117.5 350.51 116.338C349.015 117.058 348.439 119.194 349.207 120.664Z" fill="#BBC0D4"/>
<path d="M315.669 139.164C315.054 138.476 314.129 137.756 313.305 138.171C312.677 138.487 312.504 139.357 312.75 140.016C313.05 140.656 313.512 141.207 314.091 141.614C315.807 143.03 317.656 144.308 319.153 145.953C321.833 148.899 323.253 152.873 326.168 155.586C326.754 156.215 327.529 156.635 328.376 156.781C329.226 156.86 330.179 156.317 330.277 155.469C330.357 154.771 329.871 154.147 329.395 153.63C328.263 152.398 327.023 151.265 325.954 149.978C325.461 149.483 325.151 148.835 325.075 148.141C325.07 147.448 325.701 146.723 326.373 146.894C325.556 146.686 324.951 145.326 323.753 145.07C322.751 144.856 322.509 145.476 321.317 144.965C319.044 143.99 317.261 140.946 315.669 139.164Z" fill="#BBC0D4"/>
<path d="M369.08 72.1909C368.428 71.9971 367.786 71.7681 367.159 71.5049C365.472 70.9983 363.239 72.2388 363.463 73.9865C363.613 75.1477 364.694 75.9305 365.29 76.9377C366.176 78.4314 365.94 80.3259 365.474 81.9987C365.36 82.5166 365.143 83.0063 364.836 83.4386C364.406 83.8951 363.893 84.2644 363.324 84.5265C361.044 85.8046 359.034 87.5121 357.405 89.5548C357.228 89.7434 357.104 89.9761 357.047 90.2286C356.967 90.8186 357.56 91.2485 357.895 91.7406C358.64 92.8338 358.102 94.3049 358.176 95.6258C358.164 95.8125 358.201 95.9991 358.282 96.1677C358.363 96.3364 358.486 96.4816 358.638 96.5895C359.087 96.8176 359.619 96.4302 359.863 95.9893C360.67 94.5262 360.062 92.1777 361.577 91.4723C361.864 91.3388 362.211 91.2826 362.402 91.0308C362.705 90.6315 362.413 90.0402 362.566 89.5628C362.797 88.8461 363.778 88.814 364.53 88.8458C365.826 88.8999 367.121 88.7275 368.357 88.3362C368.843 88.2208 369.283 87.9657 369.625 87.6024C370.077 87.0372 370.037 86.2336 369.947 85.515C369.494 81.9326 368.359 78.47 366.604 75.3142C367.935 75.4842 369.382 75.6314 370.531 74.9379C371.174 74.5495 371.945 73.3882 371.626 72.5977C371.122 71.3476 370.211 72.3998 369.08 72.1909Z" fill="#BBC0D4"/>
<path d="M198.471 91.8913C198.631 92.7455 198.787 93.6449 198.507 94.4674C198.227 95.29 197.347 95.9773 196.515 95.7252C195.87 95.5296 195.497 94.8808 195.039 94.3861C192.491 91.635 186.741 93.2278 185.167 89.8242C184.525 88.4351 184.961 86.7709 184.523 85.3046C184.247 84.4571 183.696 83.7255 182.959 83.2245C182.222 82.7236 181.339 82.4818 180.449 82.537C179.638 82.6542 178.848 82.89 178.105 83.2368C173.127 85.2302 167.902 86.5371 162.572 87.1217C161.56 87.1834 160.558 87.3657 159.588 87.6647C157.4 88.4581 155.904 90.4869 154.84 92.5572C153.776 94.6275 152.991 96.8689 151.564 98.7082C150.064 100.641 147.963 101.995 146.004 103.459C145.249 103.946 144.62 104.605 144.169 105.382C143.744 106.254 143.768 107.268 143.801 108.238L144.202 120.016C144.253 121.531 144.318 123.1 144.996 124.455C145.843 126.148 147.515 127.257 148.676 128.753C149.86 130.289 150.477 132.188 150.422 134.128C150.397 134.907 150.32 135.829 150.927 136.319C151.296 136.559 151.728 136.683 152.169 136.676L168.1 137.98C170.903 138.21 174.009 138.587 175.838 140.722C176.702 141.729 177.396 143.179 178.718 143.287C179.286 143.333 179.838 143.1 180.405 143.055C181.837 142.942 183.094 144.029 183.888 145.225C185.09 147.05 185.635 149.228 185.435 151.403C185.304 152.768 184.881 154.096 184.79 155.464C184.443 160.671 188.857 165.195 188.942 170.413C188.993 173.482 187.536 176.35 186.115 179.071C188.408 182.544 186.53 187.169 187.443 191.229C188.309 195.081 191.521 198.097 192.321 201.963C192.688 203.733 192.709 205.911 194.27 206.823C194.954 207.156 195.714 207.308 196.474 207.264C201.062 207.318 205.597 206.286 209.709 204.251C211.639 203.293 213.639 201.864 213.976 199.736C214.248 198.02 213.378 196.1 214.263 194.605C215.307 192.844 217.981 192.983 219.517 191.629C222.008 189.432 220.065 185.241 221.075 182.076C221.982 179.231 225.106 177.72 226.654 175.166C227.264 174.068 227.701 172.883 227.951 171.652C228.66 168.711 229.102 165.711 229.27 162.69C229.311 160.855 229.446 159.023 229.675 157.201C231.345 146.83 241.598 139.885 244.926 129.922C245.244 128.971 245.394 127.703 244.547 127.165C244.045 126.925 243.476 126.866 242.935 126.996L235.591 127.922C234.679 128.037 233.712 128.145 232.874 127.766C232.036 127.387 231.436 126.327 231.88 125.522C233.128 123.263 230.562 120.408 229.422 118.092C226.352 111.857 222.696 105.928 218.504 100.386C218.235 100.1 218.067 99.7356 218.025 99.3463L220.109 99.4157C219.406 96.8909 218.245 94.1281 215.792 93.2046C214.41 92.6842 212.879 92.8641 211.404 92.9447C207.18 93.1754 202.652 92.5377 198.471 91.8913Z" fill="#BBC0D4"/>
<path d="M211.408 34.9973C212.513 36.171 213.752 37.4155 215.351 37.6201C218.176 37.9815 220.207 35.0605 221.5 32.5233C221.548 33.1702 221.846 33.7728 222.331 34.2031C222.817 34.6333 223.451 34.8573 224.099 34.8273C224.796 34.71 225.461 34.4498 226.053 34.0631C231.65 31.0047 237.918 29.3842 244.296 29.3472C244.235 28.8641 244.355 28.3754 244.632 27.9755C244.91 27.5755 245.326 27.2926 245.8 27.1814C247.097 26.9243 248.265 28.0454 248.891 29.21C249.516 30.3745 249.906 31.7244 250.9 32.596C251.894 33.4677 253.818 33.4298 254.21 32.1675C254.587 30.9556 253.325 29.9221 252.276 29.2077C251.227 28.4932 250.121 27.1708 250.828 26.1164C256.186 24.9303 261.578 23.7396 267.061 23.5038C267.995 23.5363 268.925 23.3761 269.794 23.0331C270.63 22.6228 271.295 21.6913 271.07 20.7874C269.873 21.0686 268.62 20.9872 267.47 20.5534C266.32 20.1196 265.325 19.3531 264.612 18.3516C272.221 17.7238 280.313 17.1886 287.056 20.7687C287.865 22.5057 283.741 23.9508 284.844 25.5175C285.196 26.0172 285.902 26.0758 286.513 26.0872C291.198 26.1741 295.911 26.2595 300.544 25.552C302.237 25.2935 303.947 24.9286 305.646 25.1382C308.477 25.4874 310.899 27.3764 313.684 27.9923C314.818 28.243 316.089 28.2515 317.045 27.5921C318 26.9327 318.411 25.4313 317.628 24.5742C320.25 22.0039 324.603 22.6409 328.063 23.8715C331.522 25.102 334.8 27.0864 338.462 27.3606C341.087 27.5573 343.75 26.851 346.344 27.3C347.975 27.5821 349.492 28.3074 351.086 28.7531C354.1 29.5959 357.288 29.418 360.417 29.4585C368.401 29.5661 376.298 31.1353 383.717 34.0885C384.682 34.4027 385.567 34.9251 386.308 35.6188C386.998 36.358 387.35 37.5068 386.886 38.4055L379.22 37.2854C379.942 38.7073 381.811 38.9496 383.328 39.4401C384.846 39.9306 386.419 41.6065 385.507 42.9148C383.863 42.3913 382.373 44.0352 381.542 45.5478C380.712 47.0603 379.7 48.8717 377.976 48.9639C376.433 49.0464 374.567 47.7325 373.562 48.9056C374.951 50.6585 376.141 52.5607 377.109 54.5771C378.103 56.6472 378.81 59.2556 377.467 61.1181C377.256 61.4506 376.936 61.6991 376.561 61.8209C375.464 62.0986 374.752 60.7568 373.965 59.9435C372.974 58.9187 371.475 58.6284 370.133 58.1478C368.79 57.6671 367.376 56.7216 367.271 55.2998C367.206 54.4151 367.673 53.5928 368.017 52.7751C368.595 51.397 368.848 49.9041 368.756 48.4124C368.681 47.2123 368.344 45.9639 367.482 45.1254C366.62 44.2869 365.132 44.0209 364.207 44.7889C363.775 45.1472 363.43 45.7204 362.869 45.7419C361.878 45.7798 361.118 44.0527 360.321 44.6422C360.414 45.2704 360.284 45.9115 359.953 46.4534C357.574 48.5218 353.921 47.6467 350.855 48.3774C349.397 48.7947 348.001 49.4043 346.704 50.1901C346.219 50.3976 345.806 50.7441 345.517 51.186C345.135 51.9298 345.557 52.8823 346.231 53.3768C346.947 53.8156 347.751 54.09 348.585 54.1802C352.323 54.8882 356.115 55.9841 359.066 58.385C362.017 60.7859 363.953 64.7547 363.019 68.4427L355.647 61.3991C355.927 64.3566 356.086 67.3221 356.124 70.2958C356.172 70.8765 356.092 71.4605 355.89 72.0071C355.365 73.1678 353.941 73.5584 352.693 73.8146C352.345 73.8806 352.016 74.0192 351.726 74.2214C351.437 74.4237 351.193 74.6849 351.011 74.988C350.83 75.2911 350.714 75.6292 350.673 75.9801C350.631 76.331 350.664 76.6867 350.77 77.0239C351.213 78.4693 352.319 79.5962 353.331 80.7191C354.344 81.8419 355.34 83.1181 355.472 84.6241C355.605 86.1302 354.469 87.8277 352.96 87.723C351.817 87.6436 350.969 86.6201 350.481 85.5829C349.993 84.5458 349.703 83.3904 348.971 82.5091C346.753 79.8417 341.771 80.9845 339.784 78.1409C339.278 78.7154 338.927 79.4098 338.764 80.1581C338.601 80.9065 338.633 81.6841 338.855 82.4169C339.779 81.8383 341.045 82.3759 341.739 83.2167C342.434 84.0575 342.761 85.1354 343.307 86.0797C344.043 87.354 345.214 88.4836 345.317 89.9516C345.289 90.5066 345.299 91.0629 345.345 91.6168C345.527 92.5062 346.279 93.1448 346.8 93.8883C348.013 95.6181 347.953 97.9946 347.171 99.9573C346.389 101.92 344.985 103.56 343.594 105.15C341.164 107.927 338.685 110.688 335.805 112.995C334.983 113.653 334.105 114.3 333.594 115.22C333.082 116.14 333.055 117.432 333.842 118.132C333.279 118.16 332.27 118.437 331.707 118.465C331.509 116.207 331.466 113.938 331.578 111.674C329.357 110.608 326.965 113.464 327.252 115.911C327.539 118.359 329.309 120.322 330.569 122.44C331.49 123.988 332.175 125.794 331.868 127.569C331.56 129.344 329.975 130.982 328.18 130.826C325.325 130.577 324.131 126.478 321.303 126.008C321.054 125.95 320.792 125.976 320.559 126.082C320.139 126.313 320.066 126.874 320.043 127.352C319.927 129.699 319.827 132.14 320.743 134.303C322.083 137.469 325.546 140.128 324.82 143.488C320.907 141.669 318.873 137.281 317.949 133.066C317.025 128.852 316.871 124.427 315.216 120.442C313.958 122.054 311.316 120.722 310.167 119.031C309.078 117.429 308.408 115.575 307.351 113.95C306.294 112.326 304.676 110.872 302.74 110.782C300.711 110.689 298.951 112.081 297.403 113.397C296.13 114.479 294.823 115.604 294.079 117.1C292.997 119.276 293.28 121.842 293.228 124.273C293.171 126.9 292.614 129.672 290.824 131.596C289.033 133.519 285.727 134.189 283.752 132.456C282.721 131.551 282.222 130.199 281.777 128.901C279.633 122.644 277.848 116.27 276.429 109.81C276.098 111.285 274.803 113.185 273.566 112.316C273.288 112.083 273.064 111.793 272.906 111.466C270.599 107.556 266.327 105.211 262.01 103.805C257.693 102.398 253.151 101.742 248.882 100.197C246.49 99.3303 244.205 98.1921 242.073 96.8046C241.529 97.6033 241.211 98.5343 241.154 99.4988C241.096 100.463 241.301 101.425 241.745 102.283C242.692 103.96 244.835 104.93 246.669 104.344C247.617 104.041 248.418 103.383 249.358 103.058C250.299 102.733 251.561 102.893 251.972 103.799C252.366 104.666 251.771 105.715 252.066 106.621C252.516 108 254.596 108.107 255.324 109.362C255.865 110.296 255.419 111.536 254.647 112.289C253.874 113.043 252.843 113.456 251.899 113.981C248.839 115.683 246.662 118.588 243.987 120.849C241.312 123.109 237.538 124.76 234.35 123.31C235.11 119.462 230.526 116.637 229.683 112.806C229.406 111.545 229.55 110.206 229.153 108.978C228.58 107.199 227.001 105.976 225.707 104.627C224.136 102.975 222.913 101.024 222.109 98.8906C221.304 96.7573 220.936 94.4845 221.024 92.2064C221.094 90.6233 221.385 89.0144 221.024 87.4713C220.663 85.9283 219.386 84.4348 217.803 84.5047C214.187 84.6644 209.632 84.9334 207.735 81.8511C207.058 80.751 206.763 79.1398 207.742 78.297C208.433 77.7024 209.452 77.7584 210.359 77.8476L218.506 78.6491C220.411 78.8365 222.471 78.9912 224.106 77.9951C225.741 76.9989 226.45 74.3548 224.935 73.1828C223.829 72.3265 221.847 72.3729 221.526 71.0114C221.258 69.8775 222.513 68.591 221.835 67.6434C221.349 66.9639 220.256 67.1524 219.594 67.6618C218.932 68.1711 218.452 68.916 217.711 69.3017C216.411 69.9782 214.857 69.3344 213.459 68.8968C212.06 68.4592 210.185 68.422 209.507 69.721C208.748 71.1738 210.18 73.0774 209.427 74.5332C208.431 76.4579 205.06 75.3622 203.662 77.0177C202.058 78.9174 204.754 81.7502 204.212 84.1771C203.522 84.5192 202.754 84.6762 201.985 84.633C201.215 84.5898 200.47 84.3477 199.822 83.9304C199.184 83.4969 198.676 82.8987 198.352 82.1995C198.027 81.5002 197.898 80.7261 197.979 79.9595C198.113 78.8677 198.682 77.7533 198.3 76.7216C197.992 75.8875 197.155 75.3909 196.376 74.9607L188.459 70.5859C187.724 71.9494 188.654 73.6398 189.816 74.664C190.978 75.6881 192.433 76.4595 193.197 77.8073C193.68 78.7411 193.788 79.824 193.5 80.835C193.211 81.8459 192.548 82.7086 191.644 83.2468C191.531 83.3249 191.402 83.3776 191.267 83.4012C191.132 83.4248 190.993 83.4189 190.86 83.3837C190.733 83.3094 190.623 83.2106 190.536 83.0931C190.448 82.9755 190.385 82.8416 190.351 82.6993C188.954 79.1246 186.857 75.6002 183.504 73.7328C180.151 71.8655 175.333 72.2494 173.134 75.395C172.612 76.1422 172.261 76.9938 171.806 77.7838C169.389 81.9805 164.207 83.9679 159.366 83.8381C158.893 83.8643 158.421 83.7536 158.009 83.5192C157.227 82.9788 157.262 81.8321 157.382 80.8888L157.89 76.8855C157.992 76.0816 158.14 75.1931 158.776 74.6912C159.673 73.9839 160.967 74.4303 162.109 74.4138C162.974 74.3733 163.806 74.0677 164.492 73.5385C165.178 73.0092 165.684 72.2819 165.943 71.4551C166.173 70.6201 166.172 69.738 165.938 68.9039C165.705 68.0697 165.248 67.3151 164.617 66.7213C164.094 66.2296 163.391 65.612 163.668 64.9491C163.778 64.7658 163.927 64.6088 164.105 64.4893C164.282 64.3698 164.484 64.2906 164.695 64.2573C166.747 63.6615 168.915 63.5053 170.932 62.8024C172.949 62.0994 174.906 60.6611 175.384 58.5788C175.53 57.9407 175.597 57.1677 176.17 56.8513C176.458 56.7299 176.766 56.6668 177.079 56.6657C178.172 56.5101 179.168 55.9507 179.87 55.0976C180.572 54.2445 180.929 53.1595 180.871 52.0563C181.838 51.3807 183.193 51.8777 184.128 52.5962C185.063 53.3148 185.889 54.2641 187.027 54.5739C189.148 55.1511 191.198 53.2732 193.396 53.2645C194.32 53.2609 195.277 53.5877 196.147 53.2743C197.029 52.9566 197.555 52.079 198.232 51.4307C198.908 50.7823 200.095 50.3869 200.72 51.0853L200.188 47.1445C201.26 47.4151 202.377 47.4535 203.464 47.2568C204.552 47.0602 205.584 46.6333 206.493 46.0045L199.617 43.6812C199.378 43.6215 199.157 43.5033 198.974 43.3374C198.474 42.7991 198.971 41.9603 199.377 41.3484C200.35 39.8845 200.513 37.4732 198.914 36.7444C197.822 36.247 196.569 36.8441 195.522 37.4283L190.503 40.2266C190.344 41.1806 191.51 41.7212 192.233 42.3638C192.67 42.7525 192.98 43.2645 193.121 43.8324C193.262 44.4004 193.228 44.9977 193.023 45.5459C192.819 46.0942 192.453 46.5677 191.975 46.9043C191.496 47.2409 190.927 47.4249 190.341 47.4321C190.672 47.8618 190.902 48.3603 191.013 48.8907C191.125 49.4211 191.116 49.9699 190.987 50.4963L187.61 50.7392C187.231 50.8154 186.838 50.7386 186.515 50.5254C186.154 50.2047 186.203 49.6426 186.119 49.1669C185.917 48.0187 184.793 47.214 183.645 47.0077C182.498 46.8013 181.324 47.0658 180.188 47.327C179.706 47.5006 179.176 47.4883 178.702 47.2927C178.43 47.1161 178.224 46.8555 178.114 46.5505C177.616 45.3428 178.081 43.9231 178.881 42.8903C179.681 41.8574 180.777 41.1024 181.76 40.2425C184.112 38.1787 185.84 35.4983 186.749 32.504C188.608 31.7252 190.533 30.667 192.392 29.8881C195.257 28.4371 198.471 27.8145 201.672 28.0901L207.967 28.2103C209.831 28.2459 211.745 28.2916 213.468 29.0021C215.192 29.7127 216.706 31.2495 216.825 33.1098C216.861 33.3204 216.843 33.5367 216.772 33.7384C216.702 33.94 216.581 34.1204 216.421 34.2626C216.178 34.3954 215.902 34.4576 215.626 34.442C213.887 34.5031 213.146 34.9362 211.408 34.9973Z" fill="#BBC0D4"/>
<path d="M161.232 54.7263C161.478 54.4935 161.655 54.1974 161.743 53.8706C161.832 53.5437 161.829 53.1988 161.734 52.8736C161.136 52.6427 160.485 52.5834 159.854 52.7024C159.224 52.8214 158.639 53.1141 158.166 53.5474C157.793 53.9246 157.472 54.3495 157.21 54.811C156.383 56.1606 155.652 57.7727 156.131 59.2813C156.17 59.4458 156.242 59.6008 156.341 59.7373C156.441 59.8738 156.567 59.989 156.712 60.0762C156.927 60.1624 157.159 60.1987 157.39 60.1823C158.301 60.1811 159.211 60.1251 160.116 60.0145C160.671 59.9466 161.316 59.7897 161.531 59.2729C161.813 58.5935 161.13 57.8247 161.329 57.1165C161.46 56.7998 161.659 56.5155 161.911 56.2834C162.036 56.1666 162.132 56.0222 162.192 55.8617C162.252 55.7012 162.273 55.529 162.254 55.3589C162.174 55.0266 161.665 54.8381 161.482 55.1268" fill="#BBC0D4"/>
<path d="M165.956 48.5997C165.147 48.4138 164.312 48.3614 163.486 48.4446C163.303 48.4391 163.122 48.4803 162.959 48.5642C162.802 48.6803 162.688 48.8456 162.635 49.0339C162.46 49.5942 162.503 50.1996 162.755 50.7296C163.007 51.2597 163.449 51.6754 163.994 51.894C164.29 51.9622 164.575 52.0765 164.836 52.2326C165.535 52.7747 165.09 53.8828 165.222 54.7572C165.37 55.7391 166.321 56.5633 166.147 57.5409C166.009 58.3112 165.187 58.921 165.319 59.6921C165.458 60.4997 166.483 60.7424 167.299 60.8071C167.773 60.89 168.26 60.8341 168.703 60.6463C169.146 60.3431 169.461 59.8863 169.588 59.3643C169.922 58.3688 170.063 57.3185 170.002 56.2702C169.998 55.7934 169.878 55.3247 169.653 54.9046C169.407 54.5718 169.134 54.2595 168.838 53.971C167.272 52.1505 168.92 49.4351 165.956 48.5997Z" fill="#BBC0D4"/>
<path opacity="0.8" d="M371.758 191.209C371.758 191.209 251.891 122.403 200.286 135.44C200.286 135.44 90.9212 147.209 78.2465 173.102C78.2465 173.102 43.4814 64.4612 30.8066 60.8398" stroke="#E9EBF1" stroke-miterlimit="10"/>
<path opacity="0.8" d="M78.2465 173.102C98.345 119.506 279.413 60.1152 279.413 60.1152C253.701 66.6337 200.286 135.44 200.286 135.44C200.286 135.44 84.8577 70.0776 30.8066 60.8395C30.8066 60.8395 279.594 68.9876 371.758 191.208" stroke="#E9EBF1" stroke-miterlimit="10"/>
<path d="M29.8263 63.5217C31.8483 63.5217 33.4875 61.8825 33.4875 59.8605C33.4875 57.8384 31.8483 56.1992 29.8263 56.1992C27.8042 56.1992 26.165 57.8384 26.165 59.8605C26.165 61.8825 27.8042 63.5217 29.8263 63.5217Z" fill="#E9EBF1"/>
<path d="M78.2461 178.352C81.1461 178.352 83.4971 176.001 83.4971 173.101C83.4971 170.201 81.1461 167.85 78.2461 167.85C75.346 167.85 72.9951 170.201 72.9951 173.101C72.9951 176.001 75.346 178.352 78.2461 178.352Z" fill="#E9EBF1"/>
<path d="M278.434 62.7991C280.456 62.7991 282.095 61.1599 282.095 59.1378C282.095 57.1158 280.456 55.4766 278.434 55.4766C276.412 55.4766 274.772 57.1158 274.772 59.1378C274.772 61.1599 276.412 62.7991 278.434 62.7991Z" fill="#E9EBF1"/>
<path d="M370.777 193.891C372.799 193.891 374.439 192.252 374.439 190.23C374.439 188.208 372.799 186.568 370.777 186.568C368.755 186.568 367.116 188.208 367.116 190.23C367.116 192.252 368.755 193.891 370.777 193.891Z" fill="#E9EBF1"/>
<path d="M199.307 138.121C201.329 138.121 202.968 136.482 202.968 134.46C202.968 132.438 201.329 130.799 199.307 130.799C197.285 130.799 195.646 132.438 195.646 134.46C195.646 136.482 197.285 138.121 199.307 138.121Z" fill="#E9EBF1"/>
<defs>
<filter id="filter0_d_972_43074" x="-67.1182" y="-79.457" width="524.235" height="391.457" filterUnits="userSpaceOnUse" color-interpolation-filters="sRGB">
<feFlood flood-opacity="0" result="BackgroundImageFix"/>
<feColorMatrix in="SourceAlpha" type="matrix" values="0 0 0 0 0 0 0 0 0 0 0 0 0 0 0 0 0 0 127 0" result="hardAlpha"/>
<feOffset/>
<feGaussianBlur stdDeviation="2"/>
<feComposite in2="hardAlpha" operator="out"/>
<feColorMatrix type="matrix" values="0 0 0 0 0 0 0 0 0 0 0 0 0 0 0 0 0 0 0.2 0"/>
<feBlend mode="normal" in2="BackgroundImageFix" result="effect1_dropShadow_972_43074"/>
<feBlend mode="normal" in="SourceGraphic" in2="effect1_dropShadow_972_43074" result="shape"/>
</filter>
</defs>
</svg>
