<svg width="137" height="126" viewBox="0 0 137 126" fill="none" xmlns="http://www.w3.org/2000/svg">
<path d="M122.313 110.961C119.237 114.254 115.713 117.098 111.843 119.408C111.755 119.463 111.664 119.514 111.574 119.567L105.31 114.023C105.375 113.961 105.448 113.893 105.527 113.817C110.194 109.385 133.366 78.3976 134.91 70.8516C134.803 71.4802 136.303 96.1338 122.313 110.961Z" fill="#F0F0F0"/>
<path d="M113.052 120.476C112.933 120.504 112.813 120.53 112.692 120.555L107.992 116.395C108.084 116.363 108.191 116.325 108.314 116.283C110.33 115.569 116.336 113.413 122.313 110.958C128.734 108.319 135.125 105.338 136.5 103.428C136.205 103.872 127.123 117.329 113.052 120.476Z" fill="#F0F0F0"/>
<path d="M122.226 28.9453H121.557V10.6112C121.557 9.21776 121.282 7.83792 120.749 6.5505C120.216 5.26309 119.434 4.09331 118.449 3.10797C117.464 2.12262 116.294 1.341 115.006 0.807733C113.719 0.274468 112.339 0 110.946 0H72.1025C70.709 -3.27394e-06 69.3291 0.274461 68.0417 0.807723C66.7543 1.34098 65.5845 2.1226 64.5992 3.10795C63.6138 4.09329 62.8322 5.26306 62.2989 6.55047C61.7657 7.83788 61.4912 9.21773 61.4912 10.6112V111.193C61.4912 112.587 61.7657 113.967 62.2989 115.254C62.8322 116.541 63.6138 117.711 64.5992 118.696C65.5845 119.682 66.7543 120.463 68.0417 120.997C69.3291 121.53 70.709 121.804 72.1024 121.804H110.946C112.339 121.804 113.719 121.53 115.006 120.997C116.294 120.463 117.464 119.682 118.449 118.697C119.434 117.711 120.216 116.541 120.749 115.254C121.282 113.967 121.557 112.587 121.557 111.193V41.9958H122.226V28.9453Z" fill="#3F3D56"/>
<path d="M119.298 10.6844V111.12C119.298 112.161 119.093 113.191 118.695 114.153C118.297 115.114 117.713 115.988 116.977 116.723C116.241 117.459 115.367 118.043 114.406 118.44C113.444 118.838 112.414 119.043 111.373 119.043H72.3427C71.3022 119.043 70.272 118.838 69.3107 118.44C68.3494 118.042 67.476 117.458 66.7403 116.722C66.0046 115.987 65.421 115.113 65.0229 114.152C64.6247 113.191 64.4199 112.16 64.4199 111.12V10.6844C64.4199 9.644 64.6247 8.61372 65.0229 7.65245C65.421 6.69119 66.0046 5.81776 66.7403 5.08206C67.476 4.34635 68.3494 3.76277 69.3107 3.36464C70.272 2.96652 71.3022 2.76164 72.3427 2.76172H77.0792C76.8467 3.3334 76.7582 3.95346 76.8216 4.56735C76.8849 5.18124 77.0982 5.77016 77.4425 6.28231C77.7869 6.79446 78.2518 7.21415 78.7964 7.50447C79.341 7.79479 79.9486 7.94684 80.5657 7.94725H102.818C103.435 7.94783 104.044 7.79642 104.589 7.50638C105.134 7.21633 105.599 6.79657 105.944 6.28413C106.288 5.77168 106.502 5.18231 106.565 4.56801C106.627 3.95371 106.538 3.33337 106.305 2.76172H111.373C112.414 2.76134 113.444 2.96599 114.406 3.36398C115.367 3.76196 116.241 4.34549 116.977 5.08122C117.713 5.81695 118.297 6.69047 118.695 7.65189C119.093 8.61331 119.298 9.64378 119.298 10.6844Z" fill="white"/>
<path d="M107.158 62.8778H72.8514C72.2505 62.8771 71.6744 62.6381 71.2495 62.2132C70.8246 61.7883 70.5856 61.2123 70.585 60.6114V59.4832C70.5856 58.8823 70.8246 58.3063 71.2495 57.8814C71.6744 57.4565 72.2505 57.2175 72.8514 57.2168H107.158C107.759 57.2175 108.335 57.4565 108.76 57.8814C109.184 58.3063 109.423 58.8823 109.424 59.4832V60.6114C109.423 61.2123 109.184 61.7883 108.76 62.2132C108.335 62.6381 107.759 62.8771 107.158 62.8778Z" fill="#F0F0F0"/>
<path d="M107.158 72.6024H72.8514C72.2505 72.6017 71.6744 72.3627 71.2495 71.9378C70.8246 71.5129 70.5856 70.9369 70.585 70.336V69.2078C70.5856 68.607 70.8246 68.0309 71.2495 67.606C71.6744 67.1811 72.2505 66.9421 72.8514 66.9414H107.158C107.759 66.9421 108.335 67.1811 108.76 67.606C109.184 68.0309 109.423 68.607 109.424 69.2078V70.336C109.423 70.9369 109.184 71.5129 108.76 71.9378C108.335 72.3627 107.759 72.6017 107.158 72.6024Z" fill="#F0F0F0"/>
<path d="M108.874 60.7001H74.5673C73.9363 60.6994 73.3314 60.4485 72.8853 60.0023C72.4392 59.5562 72.1882 58.9513 72.1875 58.3204V57.1923C72.1882 56.5613 72.4392 55.9564 72.8853 55.5103C73.3314 55.0642 73.9363 54.8132 74.5673 54.8125H108.874C109.505 54.8132 110.109 55.0642 110.556 55.5103C111.002 55.9564 111.253 56.5613 111.253 57.1923V58.3204C111.253 58.9513 111.002 59.5562 110.556 60.0023C110.109 60.4485 109.505 60.6994 108.874 60.7001ZM74.5673 55.2658C74.0565 55.2664 73.5668 55.4695 73.2057 55.8307C72.8445 56.1918 72.6414 56.6815 72.6408 57.1923V58.3204C72.6414 58.8311 72.8445 59.3208 73.2057 59.682C73.5668 60.0431 74.0565 60.2463 74.5673 60.2469H108.874C109.384 60.2463 109.874 60.0431 110.235 59.682C110.596 59.3208 110.799 58.8311 110.8 58.3204V57.1923C110.799 56.6815 110.596 56.1918 110.235 55.8307C109.874 55.4695 109.384 55.2664 108.874 55.2658H74.5673Z" fill="#3F3D56"/>
<path d="M108.874 70.4248H74.5673C73.9363 70.424 73.3314 70.1731 72.8853 69.7269C72.4392 69.2808 72.1882 68.6759 72.1875 68.045V66.9169C72.1882 66.2859 72.4392 65.6811 72.8853 65.2349C73.3314 64.7888 73.9363 64.5378 74.5673 64.5371H108.874C109.505 64.5378 110.109 64.7888 110.556 65.2349C111.002 65.6811 111.253 66.2859 111.253 66.9169V68.045C111.253 68.6759 111.002 69.2808 110.556 69.7269C110.109 70.1731 109.505 70.424 108.874 70.4248ZM74.5673 64.9904C74.0565 64.991 73.5668 65.1941 73.2057 65.5553C72.8445 65.9164 72.6414 66.4061 72.6408 66.9169V68.045C72.6414 68.5558 72.8445 69.0454 73.2057 69.4066C73.5668 69.7677 74.0565 69.9709 74.5673 69.9715H108.874C109.384 69.9709 109.874 69.7677 110.235 69.4066C110.596 69.0454 110.799 68.5558 110.8 68.045V66.9169C110.799 66.4061 110.596 65.9164 110.235 65.5553C109.874 65.1941 109.384 64.991 108.874 64.9904H74.5673Z" fill="#3F3D56"/>
<path d="M119.298 10.6844V32.5306C115.827 33.4438 112.193 33.5486 108.675 32.8368C105.156 32.1251 101.848 30.6158 99.0052 28.425C96.1619 26.2343 93.8591 23.4205 92.2739 20.2001C90.6886 16.9798 89.8633 13.4387 89.8613 9.84928C89.8613 9.2086 89.8871 8.57459 89.9386 7.94725H102.818C103.435 7.94783 104.044 7.79642 104.589 7.50638C105.134 7.21633 105.599 6.79657 105.944 6.28413C106.288 5.77168 106.502 5.18231 106.564 4.56801C106.627 3.95371 106.538 3.33337 106.305 2.76172H111.373C112.413 2.76134 113.444 2.96599 114.406 3.36398C115.367 3.76196 116.241 4.34549 116.977 5.08122C117.713 5.81695 118.297 6.69047 118.695 7.65189C119.093 8.61331 119.298 9.64378 119.298 10.6844Z" fill="#F0F0F0"/>
<path d="M84.141 117.68C84.141 118.14 84.1238 118.595 84.0867 119.044H72.3427C71.3022 119.044 70.272 118.839 69.3107 118.441C68.3494 118.043 67.476 117.459 66.7403 116.724C66.0046 115.988 65.421 115.114 65.0229 114.153C64.6247 113.192 64.4199 112.162 64.4199 111.121V100.378C66.8816 100.058 69.3833 100.266 71.7582 100.989C74.1331 101.712 76.3267 102.932 78.1928 104.569C80.0589 106.207 81.5546 108.223 82.5803 110.483C83.6059 112.744 84.138 115.197 84.141 117.68Z" fill="#4A3AFF"/>
<path d="M97.4324 84.329H81.1453C80.5445 84.3283 79.9684 84.0893 79.5435 83.6644C79.1186 83.2395 78.8796 82.6634 78.8789 82.0625V80.9344C78.8796 80.3335 79.1186 79.7574 79.5435 79.3325C79.9684 78.9077 80.5445 78.6686 81.1453 78.668H97.4324C98.0333 78.6686 98.6094 78.9077 99.0343 79.3325C99.4592 79.7574 99.6982 80.3335 99.6989 80.9344V82.0625C99.6982 82.6634 99.4592 83.2395 99.0343 83.6644C98.6094 84.0893 98.0333 84.3283 97.4324 84.329Z" fill="#4A3AFF"/>
<path d="M99.1493 82.1533H82.8622C82.2313 82.1526 81.6264 81.9016 81.1802 81.4555C80.7341 81.0093 80.4831 80.4044 80.4824 79.7735V78.6454C80.4831 78.0145 80.7341 77.4096 81.1802 76.9634C81.6264 76.5173 82.2313 76.2663 82.8622 76.2656H99.1493C99.7803 76.2663 100.385 76.5173 100.831 76.9634C101.277 77.4096 101.528 78.0145 101.529 78.6454V79.7735C101.528 80.4044 101.277 81.0093 100.831 81.4555C100.385 81.9016 99.7803 82.1526 99.1493 82.1533ZM82.8622 76.7189C82.3514 76.7195 81.8617 76.9226 81.5006 77.2838C81.1394 77.645 80.9363 78.1346 80.9357 78.6454V79.7735C80.9363 80.2843 81.1394 80.7739 81.5006 81.1351C81.8617 81.4963 82.3514 81.6994 82.8622 81.7H99.1493C99.6601 81.6994 100.15 81.4963 100.511 81.1351C100.872 80.7739 101.075 80.2843 101.076 79.7735V78.6454C101.075 78.1346 100.872 77.645 100.511 77.2838C100.15 76.9226 99.6601 76.7195 99.1493 76.7189H82.8622Z" fill="#3F3D56"/>
<path d="M117.306 42.7822C126.991 42.7822 134.843 34.9308 134.843 25.2456C134.843 15.5604 126.991 7.70898 117.306 7.70898C107.621 7.70898 99.7695 15.5604 99.7695 25.2456C99.7695 34.9308 107.621 42.7822 117.306 42.7822Z" fill="#4A3AFF"/>
<path d="M124.571 32.8858H110.041C109.775 32.8855 109.521 32.7799 109.333 32.592C109.145 32.4041 109.039 32.1494 109.039 31.8837V23.1154C109.039 22.8497 109.145 22.595 109.333 22.4071C109.521 22.2192 109.775 22.1136 110.041 22.1133H124.571C124.837 22.1136 125.092 22.2192 125.28 22.4071C125.468 22.595 125.573 22.8497 125.574 23.1154V31.8837C125.573 32.1494 125.468 32.4041 125.28 32.592C125.092 32.7799 124.837 32.8855 124.571 32.8858ZM110.041 23.1154V31.8837H124.572L124.571 23.1154L110.041 23.1154Z" fill="white"/>
<path d="M121.816 23.1184H112.797V19.1101C112.797 16.2068 114.693 14.0996 117.306 14.0996C119.919 14.0996 121.816 16.2068 121.816 19.1101L121.816 23.1184ZM113.799 22.1164H120.814V19.1101C120.814 16.75 119.371 15.1017 117.306 15.1017C115.241 15.1017 113.799 16.75 113.799 19.1101L113.799 22.1164Z" fill="white"/>
<path d="M117.307 28.2522C117.86 28.2522 118.309 27.8036 118.309 27.2501C118.309 26.6967 117.86 26.248 117.307 26.248C116.753 26.248 116.305 26.6967 116.305 27.2501C116.305 27.8036 116.753 28.2522 117.307 28.2522Z" fill="white"/>
<path d="M36.3097 125.656C56.0869 125.656 72.1194 124.439 72.1194 122.937C72.1194 121.434 56.0869 120.217 36.3097 120.217C16.5326 120.217 0.5 121.434 0.5 122.937C0.5 124.439 16.5326 125.656 36.3097 125.656Z" fill="#E6E6E6"/>
<path d="M27.8721 28.3557C34.104 25.705 41.8661 27.3844 49.4465 28.55C49.517 27.1385 50.3721 25.4206 49.4764 24.4358C48.3883 23.2394 48.4884 21.9823 49.1432 20.718C50.8177 17.4849 48.4187 14.0448 45.9965 11.1843C45.4505 10.541 44.7605 10.0356 43.9825 9.70906C43.2046 9.38252 42.3605 9.2441 41.519 9.30502L37.032 9.62552C35.9402 9.70351 34.8982 10.1131 34.0455 10.7995C33.1927 11.4858 32.57 12.4163 32.2605 13.4663C31.1891 14.9234 30.6157 16.3765 30.9767 17.822C29.3719 18.9187 29.1023 20.2425 29.8234 21.7349C30.4349 22.6745 30.4284 23.5892 29.7956 24.4785C28.9646 25.6124 28.3281 26.8767 27.9122 28.2196L27.8721 28.3557Z" fill="#2F2E41"/>
<path d="M60.226 47.8263L46.876 54.9238L46.707 49.0093C51.0644 48.2818 55.21 47.0154 59.0431 44.9536L60.4394 41.504C60.5915 41.1281 60.8388 40.7983 61.1569 40.5468C61.475 40.2954 61.8531 40.131 62.2539 40.0698C62.6548 40.0086 63.0647 40.0526 63.4434 40.1977C63.822 40.3427 64.1565 40.5838 64.4139 40.8971C64.7905 41.3555 64.9787 41.94 64.9405 42.5321C64.9022 43.1241 64.6404 43.6795 64.208 44.0857L60.226 47.8263Z" fill="#FFB8B8"/>
<path d="M27.6061 88.8033C27.5087 88.4461 27.488 88.0724 27.5454 87.7066C27.6028 87.3409 27.7369 86.9914 27.9391 86.6812L30.8717 82.1806C31.5653 81.1161 32.6296 80.3472 33.8581 80.0231C35.0867 79.699 36.3918 79.8428 37.5203 80.4265C36.2878 82.5245 36.4596 84.3649 37.9459 85.9643C35.6386 87.0907 33.506 88.5445 31.6144 90.2807C31.2691 90.5161 30.8725 90.6656 30.4576 90.7167C30.0428 90.7679 29.6218 90.7191 29.2297 90.5746C28.8375 90.43 28.4855 90.1939 28.2031 89.8858C27.9207 89.5777 27.716 89.2066 27.6061 88.8033Z" fill="#2F2E41"/>
<path d="M60.8337 82.9208C60.39 83.6604 59.7636 84.2736 59.0146 84.7014C58.2656 85.1292 57.4193 85.3573 56.5568 85.3638L37.0744 85.5114L36.2295 80.6108L44.8478 78.076L37.5814 72.4994L45.5238 63.2051L59.9497 76.6506C60.7928 77.4364 61.3407 78.4879 61.5016 79.6292C61.6625 80.7705 61.4267 81.9325 60.8337 82.9208Z" fill="#2F2E41"/>
<path d="M34.0328 116.438H29.4701C25.3735 88.3569 21.2036 60.1977 33.5258 49.6875L48.0587 52.0533L46.1999 64.3894L38.0885 73.6837L34.0328 116.438Z" fill="#2F2E41"/>
<path d="M38.0432 122.798C37.686 122.895 37.3123 122.916 36.9465 122.859C36.5807 122.801 36.2313 122.667 35.9211 122.465L30.967 121.799C29.9024 121.105 29.1335 120.041 28.8093 118.813C28.4851 117.584 28.6288 116.279 29.2125 115.151C31.3105 116.383 33.1509 116.211 34.7502 114.725C35.8803 117.006 37.7421 116.867 39.5203 118.789C39.7558 119.135 39.9053 119.531 39.9564 119.946C40.0076 120.361 39.9589 120.782 39.8143 121.174C39.6698 121.566 39.4337 121.918 39.1256 122.201C38.8175 122.483 38.4464 122.688 38.0432 122.798Z" fill="#2F2E41"/>
<path d="M44.8478 30.9277L36.3984 28.8999C37.8017 26.0274 37.9173 22.8312 37.2434 19.4366L42.9889 19.2676C43.169 23.4889 43.7136 27.4327 44.8478 30.9277Z" fill="#FFB8B8"/>
<path d="M47.1701 57.1394C41.0193 61.3307 36.6733 57.2828 33.3568 51.0373C33.8176 47.2157 33.0714 42.6423 31.6894 37.673C31.0748 35.4811 31.3043 33.1385 32.3325 31.1076C33.3608 29.0767 35.1131 27.5051 37.2435 26.7031L44.51 29.7449C50.68 34.7742 51.8945 40.222 49.5796 45.9677L47.1701 57.1394Z" fill="#4A3AFF"/>
<path d="M29.4706 35.1531L22.7111 38.7018L34.7092 45.7993L36.3787 49.9173C36.4901 50.1922 36.5444 50.4868 36.5382 50.7833C36.5321 51.0799 36.4656 51.372 36.3428 51.642C36.22 51.912 36.0435 52.1541 35.8241 52.3537C35.6047 52.5532 35.347 52.706 35.0666 52.8027C34.7479 52.9126 34.408 52.9472 34.0737 52.9039C33.7394 52.8605 33.4196 52.7403 33.1395 52.5528C32.8593 52.3652 32.6264 52.1153 32.459 51.8227C32.2915 51.5301 32.1941 51.2027 32.1743 50.8661L32.0054 47.9961L16.756 42.9638C16.2422 42.7943 15.7737 42.51 15.386 42.1326C14.9984 41.7552 14.7017 41.2945 14.5184 40.7854C14.2513 40.0434 14.2377 39.2338 14.4797 38.4832C14.7218 37.7326 15.2059 37.0834 15.8562 36.6373L28.1187 28.2246L29.4706 35.1531Z" fill="#FFB8B8"/>
<path d="M36.2288 35.8299C33.4097 34.5944 30.8462 35.9365 27.6105 37.0128L27.1035 28.0565C30.3164 26.344 33.3798 25.8823 36.2288 27.2115L36.2288 35.8299Z" fill="#4A3AFF"/>
<path d="M39.6016 23.7033C42.581 23.7033 44.9962 21.288 44.9962 18.3087C44.9962 15.3293 42.581 12.9141 39.6016 12.9141C36.6223 12.9141 34.207 15.3293 34.207 18.3087C34.207 21.288 36.6223 23.7033 39.6016 23.7033Z" fill="#FFB8B8"/>
<path d="M46.0551 17.6277C40.714 18.1508 36.6441 17.2773 34.043 14.7901V12.7871H45.6018L46.0551 17.6277Z" fill="#2F2E41"/>
</svg>
