<svg width="32" height="32" viewBox="0 0 32 32" fill="none" xmlns="http://www.w3.org/2000/svg">
<path d="M27.3335 13.5867H23.4802C20.3202 13.5867 17.7468 11.0134 17.7468 7.85341V4.00008C17.7468 3.26675 17.1468 2.66675 16.4135 2.66675H10.7602C6.6535 2.66675 3.3335 5.33342 3.3335 10.0934V21.9067C3.3335 26.6667 6.6535 29.3334 10.7602 29.3334H21.2402C25.3468 29.3334 28.6668 26.6667 28.6668 21.9067V14.9201C28.6668 14.1867 28.0668 13.5867 27.3335 13.5867Z" fill="#FCE1B3"/>
<path d="M21.0666 2.94658C20.5199 2.39991 19.5732 2.77324 19.5732 3.53324V8.18658C19.5732 10.1332 21.2266 11.7466 23.2399 11.7466C24.5066 11.7599 26.2666 11.7599 27.7732 11.7599C28.5332 11.7599 28.9332 10.8666 28.3999 10.3332C26.4799 8.39991 23.0399 4.91991 21.0666 2.94658Z" fill="#F59E0B"/>
<path d="M16.3731 19.6267C15.9864 19.24 15.3464 19.24 14.9598 19.6267L13.9998 20.5867V15C13.9998 14.4533 13.5464 14 12.9998 14C12.4531 14 11.9998 14.4533 11.9998 15V20.5867L11.0398 19.6267C10.6531 19.24 10.0131 19.24 9.62643 19.6267C9.23976 20.0133 9.23976 20.6533 9.62643 21.04L12.2931 23.7067C12.3064 23.72 12.3198 23.72 12.3198 23.7333C12.3998 23.8133 12.5064 23.88 12.6131 23.9333C12.7464 23.9733 12.8664 24 12.9998 24C13.1331 24 13.2531 23.9733 13.3731 23.92C13.4931 23.8667 13.5998 23.8 13.7064 23.7067L16.3731 21.04C16.7598 20.6533 16.7598 20.0133 16.3731 19.6267Z" fill="#F59E0B"/>
</svg>
