<svg width="24" height="25" viewBox="0 0 24 25" fill="none" xmlns="http://www.w3.org/2000/svg">
<path d="M16.19 2.64502H7.81C4.17 2.64502 2 4.81502 2 8.45502V16.825C2 20.475 4.17 22.645 7.81 22.645H16.18C19.82 22.645 21.99 20.475 21.99 16.835V8.45502C22 4.81502 19.83 2.64502 16.19 2.64502ZM10.95 18.155C10.66 18.445 10.11 18.725 9.71 18.785L7.25 19.135C7.16 19.145 7.07 19.155 6.98 19.155C6.57 19.155 6.19 19.015 5.92 18.745C5.59 18.415 5.45 17.935 5.53 17.405L5.88 14.945C5.94 14.535 6.21 13.995 6.51 13.705L10.97 9.24502C11.05 9.45502 11.13 9.66502 11.24 9.90502C11.34 10.115 11.45 10.335 11.57 10.535C11.67 10.705 11.78 10.865 11.87 10.985C11.98 11.155 12.11 11.315 12.19 11.405C12.24 11.475 12.28 11.525 12.3 11.545C12.55 11.845 12.84 12.125 13.09 12.335C13.16 12.405 13.2 12.445 13.22 12.455C13.37 12.575 13.52 12.695 13.65 12.785C13.81 12.905 13.97 13.015 14.14 13.105C14.34 13.225 14.56 13.335 14.78 13.445C15.01 13.545 15.22 13.635 15.43 13.705L10.95 18.155ZM17.37 11.735L16.45 12.665C16.39 12.725 16.31 12.755 16.23 12.755C16.2 12.755 16.16 12.755 16.14 12.745C14.11 12.165 12.49 10.545 11.91 8.51502C11.88 8.40502 11.91 8.28502 11.99 8.21502L12.92 7.28502C14.44 5.76502 15.89 5.79502 17.38 7.28502C18.14 8.04502 18.51 8.77502 18.51 9.53502C18.5 10.255 18.13 10.975 17.37 11.735Z" fill="#FDFDFD"/>
</svg>
