<svg width="24" height="24" viewBox="0 0 24 24" fill="none" xmlns="http://www.w3.org/2000/svg">
<g clip-path="url(#clip0_437_18708)">
<g filter="url(#filter0_d_437_18708)">
<path d="M20.4938 7.825C19.4538 3.195 15.4138 1.125 11.8738 1.125C11.8738 1.125 11.8738 1.125 11.8638 1.125C8.33377 1.125 4.30377 3.195 3.25377 7.815C2.07377 12.975 5.23377 17.345 8.09377 20.105C11.3112 22.9375 11.4987 22.75 12.0612 23.125C12.6237 22.75 12.4362 23.125 15.6438 20.105C18.5038 17.345 21.6638 12.985 20.4938 7.825ZM14.6238 10.875H12.6238V12.875C12.6238 13.285 12.2838 13.625 11.8738 13.625C11.4638 13.625 11.1238 13.285 11.1238 12.875V10.875H9.12377C8.71377 10.875 8.37377 10.535 8.37377 10.125C8.37377 9.715 8.71377 9.375 9.12377 9.375H11.1238V7.375C11.1238 6.965 11.4638 6.625 11.8738 6.625C12.2838 6.625 12.6238 6.965 12.6238 7.375V9.375H14.6238C15.0338 9.375 15.3738 9.715 15.3738 10.125C15.3738 10.535 15.0338 10.875 14.6238 10.875Z" fill="#4A3AFF"/>
</g>
<path d="M15.1147 9.1161H12.7576V6.75896C12.7576 6.27574 12.3569 5.87503 11.8737 5.87503C11.3904 5.87503 10.9897 6.27574 10.9897 6.75896V9.1161H8.63259C8.14937 9.1161 7.74866 9.51682 7.74866 10C7.74866 10.4832 8.14937 10.884 8.63259 10.884H10.9897V13.2411C10.9897 13.7243 11.3904 14.125 11.8737 14.125C12.3569 14.125 12.7576 13.7243 12.7576 13.2411V10.884H15.1147C15.5979 10.884 15.9987 10.4832 15.9987 10C15.9987 9.51682 15.5979 9.1161 15.1147 9.1161Z" fill="white"/>
</g>
<defs>
<filter id="filter0_d_437_18708" x="-1" y="-2.875" width="25.7437" height="30" filterUnits="userSpaceOnUse" color-interpolation-filters="sRGB">
<feFlood flood-opacity="0" result="BackgroundImageFix"/>
<feColorMatrix in="SourceAlpha" type="matrix" values="0 0 0 0 0 0 0 0 0 0 0 0 0 0 0 0 0 0 127 0" result="hardAlpha"/>
<feOffset/>
<feGaussianBlur stdDeviation="2"/>
<feComposite in2="hardAlpha" operator="out"/>
<feColorMatrix type="matrix" values="0 0 0 0 0 0 0 0 0 0 0 0 0 0 0 0 0 0 0.2 0"/>
<feBlend mode="normal" in2="BackgroundImageFix" result="effect1_dropShadow_437_18708"/>
<feBlend mode="normal" in="SourceGraphic" in2="effect1_dropShadow_437_18708" result="shape"/>
</filter>
<clipPath id="clip0_437_18708">
<rect width="24" height="24" fill="white"/>
</clipPath>
</defs>
</svg>
