<svg width="150" height="160" viewBox="0 0 150 160" fill="none" xmlns="http://www.w3.org/2000/svg">
<path d="M94.9739 90.7787L30.6964 107.331C28.516 107.89 26.203 107.561 24.2648 106.416C22.3266 105.272 20.9215 103.406 20.3577 101.226L0.918502 25.7378C0.359658 23.5574 0.688506 21.2444 1.83291 19.3062C2.97731 17.368 4.8438 15.9629 7.02289 15.3991L66.8226 0L82.1285 6.85195L101.078 80.44C101.637 82.6203 101.308 84.9333 100.164 86.8716C99.0195 88.8098 97.153 90.2149 94.9739 90.7787Z" fill="#F2F2F2"/>
<path d="M7.63231 17.7655C6.08053 18.167 4.75136 19.1676 3.93641 20.5478C3.12145 21.9281 2.88727 23.5752 3.28524 25.1279L22.7244 100.617C23.1259 102.168 24.1265 103.498 25.5068 104.312C26.887 105.127 28.5341 105.362 30.0868 104.964L94.3643 88.4115C95.9161 88.01 97.2453 87.0094 98.0602 85.6291C98.8752 84.2489 99.1094 82.6018 98.7114 81.0491L80.0552 8.60125L66.6041 2.57959L7.63231 17.7655Z" fill="white"/>
<path d="M81.9655 7.24166L72.0177 9.80334C71.2915 9.99035 70.5207 9.88121 69.875 9.49993C69.2292 9.11865 68.7614 8.49647 68.5744 7.77025L66.6823 0.422937C66.6741 0.390771 66.675 0.356921 66.6851 0.325269C66.6952 0.293618 66.7139 0.265448 66.7393 0.243987C66.7646 0.222526 66.7955 0.208644 66.8284 0.203934C66.8613 0.199224 66.8948 0.203876 66.9252 0.217356L81.9931 6.90902C82.0267 6.92391 82.0547 6.94887 82.0735 6.98043C82.0922 7.012 82.1006 7.0486 82.0975 7.08516C82.0945 7.12173 82.0802 7.15644 82.0565 7.18448C82.0328 7.21253 82.001 7.23251 81.9655 7.24166Z" fill="#F2F2F2"/>
<path d="M76.7321 71.7072L47.4675 79.2432C47.2877 79.2895 47.1006 79.2999 46.9167 79.2739C46.7329 79.2479 46.556 79.1859 46.3961 79.0915C46.2363 78.9971 46.0966 78.8721 45.985 78.7237C45.8734 78.5753 45.7921 78.4064 45.7458 78.2266C45.6995 78.0468 45.6891 77.8597 45.7151 77.6759C45.7412 77.492 45.8031 77.3151 45.8975 77.1553C45.9919 76.9954 46.1169 76.8557 46.2653 76.7441C46.4137 76.6325 46.5826 76.5513 46.7624 76.505L76.027 68.969C76.2068 68.9227 76.394 68.9123 76.5778 68.9383C76.7616 68.9643 76.9385 69.0263 77.0984 69.1207C77.2583 69.2151 77.398 69.34 77.5096 69.4884C77.6211 69.6368 77.7024 69.8057 77.7487 69.9855C77.795 70.1653 77.8054 70.3525 77.7794 70.5363C77.7534 70.7201 77.6914 70.897 77.597 71.0569C77.5026 71.2168 77.3776 71.3565 77.2292 71.4681C77.0809 71.5796 76.9119 71.6609 76.7321 71.7072Z" fill="#CCCCCC"/>
<path d="M83.5682 74.8734L48.656 83.8637C48.2929 83.9572 47.9075 83.9026 47.5846 83.712C47.2617 83.5213 47.0278 83.2102 46.9343 82.8471C46.8408 82.484 46.8954 82.0986 47.086 81.7758C47.2767 81.4529 47.5878 81.219 47.9509 81.1255L82.8631 72.1352C83.226 72.042 83.6111 72.0968 83.9337 72.2875C84.2563 72.4782 84.4901 72.7891 84.5835 73.152C84.677 73.5149 84.6225 73.9001 84.4321 74.2229C84.2417 74.5456 83.931 74.7796 83.5682 74.8734Z" fill="#CCCCCC"/>
<path d="M35.5233 88.3197C38.283 88.3197 40.5202 86.0825 40.5202 83.3228C40.5202 80.5631 38.283 78.3259 35.5233 78.3259C32.7636 78.3259 30.5264 80.5631 30.5264 83.3228C30.5264 86.0825 32.7636 88.3197 35.5233 88.3197Z" fill="#E6E6E6"/>
<path d="M73.6195 58.6299L34.7532 68.6348C33.6299 68.9226 32.4384 68.753 31.44 68.1634C30.4416 67.5738 29.7178 66.6122 29.4275 65.4896L21.2825 33.8484C20.9947 32.7251 21.1642 31.5336 21.7539 30.5352C22.3435 29.5368 23.3051 28.813 24.4277 28.5227L63.294 18.5179C64.4173 18.2301 65.6088 18.3996 66.6073 18.9892C67.6057 19.5789 68.3294 20.5405 68.6198 21.663L76.7647 53.3042C77.0525 54.4275 76.883 55.619 76.2933 56.6174C75.7037 57.6159 74.7421 58.3396 73.6195 58.6299Z" fill="white"/>
<path d="M73.6195 58.6299L34.7532 68.6348C33.6299 68.9226 32.4384 68.753 31.44 68.1634C30.4416 67.5738 29.7178 66.6122 29.4275 65.4896L21.2825 33.8484C20.9947 32.7251 21.1642 31.5336 21.7539 30.5352C22.3435 29.5368 23.3051 28.813 24.4277 28.5227L63.294 18.5179C64.4173 18.2301 65.6088 18.3996 66.6073 18.9892C67.6057 19.5789 68.3294 20.5405 68.6198 21.663L76.7647 53.3042C77.0525 54.4275 76.883 55.619 76.2933 56.6174C75.7037 57.6159 74.7421 58.3396 73.6195 58.6299ZM24.556 29.021C23.5654 29.2771 22.717 29.9158 22.1967 30.7967C21.6765 31.6777 21.5269 32.729 21.7808 33.7201L29.9258 65.3613C30.1819 66.3518 30.8205 67.2003 31.7015 67.7206C32.5825 68.2408 33.6338 68.3904 34.6249 68.1365L73.4913 58.1317C74.4818 57.8755 75.3303 57.2369 75.8505 56.3559C76.3708 55.475 76.5204 54.4236 76.2664 53.4325L68.1215 21.7913C67.8653 20.8008 67.2267 19.9523 66.3457 19.4321C65.4648 18.9118 64.4134 18.7622 63.4223 19.0162L24.556 29.021Z" fill="#E6E6E6"/>
<path d="M61.3221 29.1569L41.7068 34.2062C41.5353 34.2541 41.352 34.2351 41.194 34.153C41.036 34.0709 40.915 33.9319 40.8556 33.7641C40.8279 33.6764 40.8184 33.584 40.8276 33.4925C40.8368 33.4011 40.8646 33.3124 40.9092 33.2321C40.9538 33.1517 41.0143 33.0812 41.0871 33.025C41.1598 32.9688 41.2432 32.9279 41.3323 32.905L61.2995 27.7651C62.1061 28.1738 61.8941 29.0097 61.3221 29.1569Z" fill="#F2F2F2"/>
<path d="M62.2078 32.5976L42.5925 37.6469C42.421 37.6948 42.2377 37.6757 42.0797 37.5937C41.9217 37.5116 41.8008 37.3726 41.7413 37.2048C41.7137 37.1171 41.7042 37.0247 41.7134 36.9332C41.7226 36.8418 41.7503 36.7531 41.795 36.6727C41.8396 36.5923 41.9001 36.5219 41.9728 36.4656C42.0455 36.4094 42.129 36.3686 42.218 36.3457L62.1852 31.2058C62.9918 31.6145 62.7798 32.4504 62.2078 32.5976Z" fill="#F2F2F2"/>
<path d="M38.8573 40.6972L32.8709 42.2382C32.6754 42.2883 32.468 42.2588 32.2942 42.1562C32.1204 42.0536 31.9944 41.8862 31.9439 41.6908L30.1254 34.6263C30.0753 34.4308 30.1048 34.2234 30.2074 34.0496C30.3101 33.8758 30.4775 33.7498 30.6729 33.6993L36.6593 32.1583C36.8548 32.1083 37.0622 32.1378 37.236 32.2404C37.4097 32.3431 37.5357 32.5104 37.5863 32.7058L39.4048 39.7702C39.4549 39.9658 39.4254 40.1732 39.3228 40.347C39.2201 40.5208 39.0527 40.6467 38.8573 40.6972Z" fill="#E6E6E6"/>
<path d="M63.9637 39.6572L34.0271 47.3634C33.8556 47.4113 33.6723 47.3922 33.5143 47.3102C33.3563 47.2281 33.2354 47.0891 33.1759 46.9213C33.1482 46.8336 33.1387 46.7412 33.1479 46.6497C33.1572 46.5582 33.1849 46.4696 33.2295 46.3892C33.2741 46.3088 33.3346 46.2384 33.4074 46.1822C33.4801 46.1259 33.5635 46.0851 33.6526 46.0622L63.9413 38.2654C64.7479 38.6741 64.5356 39.51 63.9637 39.6572Z" fill="#F2F2F2"/>
<path d="M64.8504 43.0986L34.9138 50.8048C34.7423 50.8527 34.559 50.8336 34.401 50.7516C34.243 50.6695 34.1221 50.5305 34.0626 50.3627C34.035 50.275 34.0254 50.1826 34.0347 50.0911C34.0439 49.9996 34.0716 49.911 34.1162 49.8306C34.1608 49.7502 34.2214 49.6798 34.2941 49.6235C34.3668 49.5673 34.4503 49.5265 34.5393 49.5036L64.828 41.7068C65.6346 42.1155 65.4224 42.9514 64.8504 43.0986Z" fill="#F2F2F2"/>
<path d="M65.7361 46.5378L35.7995 54.244C35.628 54.2919 35.4448 54.2728 35.2868 54.1908C35.1288 54.1087 35.0078 53.9697 34.9484 53.8019C34.9207 53.7142 34.9112 53.6218 34.9204 53.5303C34.9296 53.4389 34.9574 53.3502 35.002 53.2698C35.0466 53.1894 35.1071 53.119 35.1798 53.0628C35.2526 53.0065 35.336 52.9657 35.425 52.9428L65.7138 45.146C66.5203 45.5547 66.3081 46.3906 65.7361 46.5378Z" fill="#F2F2F2"/>
<path d="M66.6219 49.9792L36.6853 57.6854C36.5138 57.7333 36.3305 57.7142 36.1725 57.6322C36.0145 57.5501 35.8936 57.4111 35.8341 57.2433C35.8064 57.1556 35.7969 57.0632 35.8061 56.9717C35.8154 56.8803 35.8431 56.7916 35.8877 56.7112C35.9323 56.6308 35.9928 56.5604 36.0656 56.5042C36.1383 56.4479 36.2218 56.4071 36.3108 56.3842L66.5995 48.5874C67.4061 48.9961 67.1938 49.832 66.6219 49.9792Z" fill="#F2F2F2"/>
<path d="M67.5076 53.4189L37.571 61.1251C37.3995 61.173 37.2162 61.1539 37.0582 61.0719C36.9002 60.9898 36.7793 60.8508 36.7198 60.683C36.6922 60.5953 36.6827 60.5029 36.6919 60.4114C36.7011 60.32 36.7289 60.2313 36.7735 60.1509C36.8181 60.0705 36.8786 60.0001 36.9513 59.9439C37.0241 59.8876 37.1075 59.8468 37.1965 59.8239L67.4852 52.0271C68.2918 52.4358 68.0796 53.2717 67.5076 53.4189Z" fill="#F2F2F2"/>
<path d="M35.8909 85.0744C35.782 85.1026 35.667 85.0947 35.5631 85.0518L35.5566 85.0492L34.1954 84.4721C34.1322 84.4453 34.0749 84.4064 34.0268 84.3575C33.9787 84.3086 33.9407 84.2507 33.915 84.1871C33.8893 84.1235 33.8764 84.0554 33.877 83.9868C33.8776 83.9182 33.8917 83.8504 33.9186 83.7873C33.9454 83.7242 33.9844 83.6669 34.0334 83.6189C34.0824 83.5709 34.1404 83.533 34.204 83.5074C34.2676 83.4817 34.3357 83.4689 34.4043 83.4697C34.4729 83.4704 34.5407 83.4846 34.6038 83.5116L35.4859 83.8867L36.6417 81.1676C36.6685 81.1046 36.7075 81.0474 36.7564 80.9995C36.8053 80.9515 36.8631 80.9136 36.9267 80.888C36.9902 80.8623 37.0582 80.8495 37.1267 80.8501C37.1952 80.8508 37.2629 80.8649 37.3259 80.8917L37.3191 80.9095L37.3264 80.8917C37.4536 80.946 37.5541 81.0485 37.6058 81.1768C37.6576 81.3051 37.6563 81.4487 37.6022 81.576L36.2424 84.7731C36.2108 84.8468 36.1628 84.9123 36.1019 84.9644C36.0409 85.0165 35.9689 85.0539 35.8912 85.0737L35.8909 85.0744Z" fill="white"/>
<path d="M119.629 119.545H53.2544C51.0036 119.543 48.8456 118.648 47.254 117.056C45.6625 115.464 44.7672 113.306 44.7646 111.056V33.1043C44.7672 30.8534 45.6625 28.6955 47.254 27.1039C48.8456 25.5123 51.0036 24.617 53.2544 24.6145H115.005L128.119 35.0669V111.056C128.116 113.306 127.221 115.464 125.629 117.056C124.038 118.648 121.88 119.543 119.629 119.545Z" fill="#E6E6E6"/>
<path d="M53.2538 27.0583C51.6509 27.0602 50.1142 27.6977 48.9808 28.8311C47.8474 29.9645 47.2098 31.5012 47.208 33.1041V111.055C47.2098 112.658 47.8474 114.195 48.9808 115.328C50.1142 116.462 51.6509 117.099 53.2538 117.101H119.628C121.231 117.099 122.768 116.462 123.901 115.328C125.035 114.195 125.672 112.658 125.674 111.055V36.2442L114.149 27.0583H53.2538Z" fill="white"/>
<path d="M106.719 49.7248H76.4997C76.1247 49.7248 75.7652 49.5758 75.5 49.3107C75.2349 49.0455 75.0859 48.6859 75.0859 48.311C75.0859 47.936 75.2349 47.5764 75.5 47.3113C75.7652 47.0462 76.1247 46.8972 76.4997 46.8972H106.719C107.094 46.8972 107.454 47.0462 107.719 47.3113C107.984 47.5764 108.133 47.936 108.133 48.311C108.133 48.6859 107.984 49.0455 107.719 49.3107C107.454 49.5758 107.094 49.7248 106.719 49.7248Z" fill="#4A3AFF"/>
<path d="M112.55 54.4965H76.4988C76.1242 54.496 75.765 54.3468 75.5003 54.0817C75.2356 53.8166 75.0869 53.4573 75.0869 53.0827C75.0869 52.7081 75.2356 52.3488 75.5003 52.0837C75.765 51.8186 76.1242 51.6695 76.4988 51.6689H112.55C112.736 51.6687 112.92 51.7051 113.092 51.776C113.263 51.8469 113.419 51.951 113.551 52.0824C113.682 52.2137 113.787 52.3696 113.858 52.5412C113.929 52.7129 113.966 52.8969 113.966 53.0827C113.966 53.2685 113.929 53.4525 113.858 53.6242C113.787 53.7958 113.682 53.9518 113.551 54.0831C113.419 54.2144 113.263 54.3185 113.092 54.3894C112.92 54.4604 112.736 54.4967 112.55 54.4965Z" fill="#4A3AFF"/>
<path d="M106.718 68.2798H76.4996C76.1247 68.2798 75.7651 68.4287 75.5 68.6938C75.2349 68.959 75.0859 69.3185 75.0859 69.6935C75.0859 70.0684 75.2349 70.428 75.5 70.6931C75.7651 70.9582 76.1247 71.1071 76.4996 71.1071H106.718C107.093 71.1071 107.453 70.9582 107.718 70.6931C107.983 70.428 108.132 70.0684 108.132 69.6935C108.132 69.3185 107.983 68.959 107.718 68.6938C107.453 68.4287 107.093 68.2798 106.718 68.2798Z" fill="#CCCCCC"/>
<path d="M112.55 73.052H76.4996C76.1247 73.052 75.7651 73.2009 75.5 73.4661C75.2349 73.7312 75.0859 74.0908 75.0859 74.4657C75.0859 74.8406 75.2349 75.2002 75.5 75.4653C75.7651 75.7304 76.1247 75.8794 76.4996 75.8794H112.55C112.925 75.8794 113.285 75.7304 113.55 75.4653C113.815 75.2002 113.964 74.8406 113.964 74.4657C113.964 74.0908 113.815 73.7312 113.55 73.4661C113.285 73.2009 112.925 73.052 112.55 73.052Z" fill="#CCCCCC"/>
<path d="M106.719 92.4914H76.4997C76.1247 92.4914 75.7652 92.3424 75.5 92.0773C75.2349 91.8121 75.0859 91.4525 75.0859 91.0776C75.0859 90.7026 75.2349 90.343 75.5 90.0779C75.7652 89.8128 76.1247 89.6638 76.4997 89.6638H106.719C107.094 89.6638 107.454 89.8128 107.719 90.0779C107.984 90.343 108.133 90.7026 108.133 91.0776C108.133 91.4525 107.984 91.8121 107.719 92.0773C107.454 92.3424 107.094 92.4914 106.719 92.4914Z" fill="#CCCCCC"/>
<path d="M112.55 97.2626H76.4988C76.1242 97.2621 75.765 97.1129 75.5003 96.8478C75.2356 96.5828 75.0869 96.2235 75.0869 95.8488C75.0869 95.4742 75.2356 95.1149 75.5003 94.8498C75.765 94.5847 76.1242 94.4356 76.4988 94.4351H112.55C112.736 94.4348 112.92 94.4712 113.092 94.5421C113.263 94.6131 113.419 94.7172 113.551 94.8485C113.682 94.9798 113.787 95.1357 113.858 95.3074C113.929 95.479 113.966 95.663 113.966 95.8488C113.966 96.0347 113.929 96.2187 113.858 96.3903C113.787 96.562 113.682 96.7179 113.551 96.8492C113.419 96.9805 113.263 97.0846 113.092 97.1555C112.92 97.2265 112.736 97.2629 112.55 97.2626Z" fill="#CCCCCC"/>
<path d="M63.9149 55.6933C66.6746 55.6933 68.9118 53.4561 68.9118 50.6964C68.9118 47.9367 66.6746 45.6995 63.9149 45.6995C61.1552 45.6995 58.918 47.9367 58.918 50.6964C58.918 53.4561 61.1552 55.6933 63.9149 55.6933Z" fill="#4A3AFF"/>
<path d="M63.4206 52.6026C63.3082 52.6028 63.1987 52.5664 63.1088 52.499L63.1032 52.4948L61.9289 51.5965C61.8743 51.5549 61.8285 51.5029 61.7941 51.4435C61.7597 51.3841 61.7373 51.3186 61.7282 51.2505C61.7191 51.1825 61.7236 51.1134 61.7413 51.0471C61.759 50.9808 61.7896 50.9186 61.8313 50.8641C61.8731 50.8097 61.9252 50.764 61.9846 50.7297C62.0441 50.6954 62.1097 50.6731 62.1777 50.6642C62.2458 50.6553 62.3149 50.6599 62.3812 50.6777C62.4474 50.6956 62.5095 50.7263 62.5639 50.7682L63.3246 51.3515L65.122 49.0065C65.1637 48.9521 65.2156 48.9065 65.275 48.8722C65.3343 48.838 65.3998 48.8157 65.4677 48.8067C65.5356 48.7978 65.6046 48.8023 65.6708 48.82C65.737 48.8377 65.799 48.8682 65.8534 48.9099L65.8424 48.9255L65.8538 48.91C65.9635 48.9943 66.0353 49.1187 66.0533 49.2558C66.0714 49.393 66.0344 49.5317 65.9503 49.6415L63.8361 52.3985C63.7872 52.462 63.7243 52.5134 63.6524 52.5487C63.5804 52.584 63.5012 52.6022 63.421 52.602L63.4206 52.6026Z" fill="white"/>
<path d="M69.4249 72.0791C69.4251 72.7354 69.2961 73.3853 69.0451 73.9917C68.7942 74.5981 68.4262 75.1492 67.9623 75.6133C67.4983 76.0775 66.9475 76.4458 66.3412 76.697C65.7349 76.9483 65.0851 77.0777 64.4288 77.0778C64.3858 77.0786 64.3429 77.0769 64.3002 77.0726C63.3176 77.0474 62.3644 76.733 61.5596 76.1688C60.7549 75.6045 60.1345 74.8154 59.7759 73.9003C59.4174 72.9852 59.3367 71.9847 59.544 71.0239C59.7513 70.0632 60.2373 69.1849 60.9412 68.499C61.6451 67.8131 62.5357 67.35 63.5015 67.1678C64.4673 66.9855 65.4654 67.092 66.3709 67.4742C67.2764 67.8563 68.0491 68.497 68.5924 69.3161C69.1356 70.1352 69.4251 71.0963 69.4249 72.0791Z" fill="#CCCCCC"/>
<path d="M63.9149 98.4601C66.6746 98.4601 68.9118 96.2229 68.9118 93.4632C68.9118 90.7035 66.6746 88.4663 63.9149 88.4663C61.1552 88.4663 58.918 90.7035 58.918 93.4632C58.918 96.2229 61.1552 98.4601 63.9149 98.4601Z" fill="#CCCCCC"/>
<path d="M127.864 35.4038H117.591C116.841 35.4038 116.122 35.1059 115.592 34.5756C115.062 34.0453 114.764 33.3261 114.764 32.5762V24.9892C114.764 24.956 114.773 24.9235 114.791 24.8953C114.808 24.8672 114.834 24.8446 114.863 24.8301C114.893 24.8157 114.927 24.8099 114.96 24.8136C114.993 24.8172 115.024 24.8301 115.05 24.8507L127.973 35.0885C128.002 35.1113 128.023 35.1425 128.033 35.1777C128.044 35.2129 128.043 35.2505 128.03 35.2851C128.018 35.3198 127.996 35.3498 127.966 35.3711C127.936 35.3924 127.9 35.4038 127.864 35.4038Z" fill="#CCCCCC"/>
<path d="M69.4251 72.0795C69.4254 72.7357 69.2963 73.3857 69.0454 73.9921C68.7944 74.5985 68.4264 75.1495 67.9625 75.6137C67.4986 76.0779 66.9477 76.4461 66.3414 76.6974C65.7352 76.9487 65.0853 77.078 64.429 77.0781C64.3861 77.079 64.3431 77.0773 64.3004 77.073C63.6548 75.4628 63.406 73.7211 63.5748 71.9946C63.7436 70.268 64.3251 68.6075 65.2703 67.1528C66.4327 67.3521 67.4872 67.9558 68.2474 68.8573C69.0077 69.7589 69.4249 70.9001 69.4251 72.0795Z" fill="#4A3AFF"/>
<path d="M75.0859 69.6947C75.0866 69.3197 75.2359 68.9602 75.5011 68.695C75.7663 68.4297 76.1258 68.2805 76.5009 68.2798H84.0311C84.4709 69.1743 84.7835 70.126 84.9598 71.1071H76.5009C76.1261 71.107 75.7666 70.9583 75.5014 70.6935C75.2361 70.4287 75.0867 70.0695 75.0859 69.6947Z" fill="#4A3AFF"/>
<path d="M85.1335 73.052C85.134 74.0069 85.0077 74.9577 84.7579 75.8794H76.4996C76.1247 75.8794 75.7651 75.7304 75.5 75.4653C75.2349 75.2002 75.0859 74.8406 75.0859 74.4657C75.0859 74.0908 75.2349 73.7312 75.5 73.4661C75.7651 73.2009 76.1247 73.052 76.4996 73.052H85.1335Z" fill="#4A3AFF"/>
<path d="M103.766 90.4887C103.553 90.8382 103.209 91.0887 102.811 91.1851C102.414 91.2815 101.994 91.2159 101.644 91.0027L83.6343 80.0174C83.4613 79.9118 83.3107 79.7732 83.1912 79.6095C83.0717 79.4457 82.9857 79.2601 82.9379 79.063C82.8902 78.866 82.8817 78.6616 82.913 78.4613C82.9443 78.261 83.0148 78.0689 83.1203 77.8958C83.2259 77.7227 83.3645 77.5722 83.5282 77.4527C83.692 77.3332 83.8777 77.2471 84.0747 77.1994C84.2717 77.1517 84.4762 77.1432 84.6764 77.1745C84.8767 77.2058 85.0689 77.2763 85.2419 77.3818L103.252 88.3671C103.601 88.5803 103.852 88.9236 103.948 89.3215C104.045 89.7193 103.979 90.1392 103.766 90.4887Z" fill="#3F3D56"/>
<path d="M85.7553 79.5033C84.4835 81.5884 82.622 83.2495 80.4061 84.2766C78.1902 85.3037 75.7195 85.6506 73.3064 85.2735C70.8934 84.8965 68.6463 83.8123 66.8494 82.1581C65.0525 80.504 63.7865 78.3541 63.2114 75.9804C62.6364 73.6067 62.7781 71.1158 63.6187 68.8227C64.4593 66.5296 65.961 64.5372 67.934 63.0975C69.9069 61.6579 72.2624 60.8356 74.7027 60.7347C77.143 60.6337 79.5583 61.2587 81.6434 62.5305C84.4365 64.2385 86.4381 66.9847 87.2089 70.1667C87.9798 73.3486 87.457 76.7063 85.7553 79.5033ZM67.3062 68.25C66.3524 69.8139 65.8837 71.6254 65.9594 73.4556C66.0351 75.2858 66.6518 77.0524 67.7315 78.5321C68.8113 80.0118 70.3055 81.1381 72.0254 81.7686C73.7452 82.399 75.6134 82.5053 77.3937 82.074C79.1739 81.6427 80.7863 80.6932 82.0269 79.3455C83.2676 77.9979 84.0807 76.3126 84.3635 74.5028C84.6463 72.693 84.3861 70.84 83.6158 69.1781C82.8455 67.5161 81.5996 66.12 80.0358 65.1661C77.9381 63.8898 75.4198 63.4978 73.0333 64.0759C70.6469 64.6541 68.5873 66.1552 67.3062 68.25Z" fill="#3F3D56"/>
<path d="M125.321 75.0532C128.81 75.0532 131.639 72.2242 131.639 68.7345C131.639 65.2447 128.81 62.4158 125.321 62.4158C121.831 62.4158 119.002 65.2447 119.002 68.7345C119.002 72.2242 121.831 75.0532 125.321 75.0532Z" fill="#FFC3CB"/>
<path d="M124.914 104.157C124.792 103.778 124.752 103.377 124.796 102.98C124.84 102.584 124.967 102.201 125.169 101.858C125.371 101.514 125.644 101.217 125.969 100.986C126.294 100.755 126.664 100.595 127.055 100.517C127.179 100.493 127.304 100.477 127.43 100.47L134.086 89.788L128.006 84.008C127.774 83.7872 127.588 83.5225 127.458 83.2293C127.329 82.9361 127.259 82.6201 127.252 82.2997C127.245 81.9792 127.302 81.6606 127.42 81.3623C127.537 81.064 127.712 80.7918 127.935 80.5615C128.158 80.3312 128.424 80.1474 128.718 80.0206C129.013 79.8938 129.329 79.8266 129.65 79.8229C129.97 79.8192 130.288 79.879 130.586 79.9989C130.883 80.1188 131.154 80.2963 131.382 80.5214L139.776 88.7986L139.793 88.8192C140.053 89.2143 140.178 89.6826 140.151 90.1546C140.123 90.6266 139.944 91.0771 139.64 91.4393L130.314 102.469C130.342 102.557 130.365 102.647 130.384 102.738C130.462 103.129 130.456 103.532 130.368 103.921C130.279 104.31 130.109 104.676 129.869 104.994C129.629 105.313 129.325 105.577 128.976 105.77C128.627 105.963 128.241 106.079 127.843 106.112C127.763 106.12 127.683 106.123 127.603 106.123C127.005 106.121 126.423 105.929 125.94 105.576C125.457 105.223 125.098 104.727 124.914 104.157Z" fill="#FFC3CB"/>
<path d="M114.914 156.675L111.76 156.675L110.26 144.509L114.915 144.51L114.914 156.675Z" fill="#FFC3CB"/>
<path d="M115.718 159.732L105.548 159.732V159.603C105.548 159.084 105.65 158.569 105.849 158.089C106.048 157.608 106.34 157.172 106.707 156.804C107.075 156.437 107.511 156.145 107.991 155.946C108.472 155.747 108.986 155.645 109.506 155.645L115.718 155.645L115.718 159.732Z" fill="#2F2E41"/>
<path d="M146.264 152.314L143.553 153.928L136.04 144.243L140.04 141.861L146.264 152.314Z" fill="#FFC3CB"/>
<path d="M148.519 154.529L139.78 159.732L139.715 159.622C139.449 159.175 139.273 158.68 139.198 158.166C139.124 157.651 139.151 157.127 139.279 156.623C139.406 156.12 139.632 155.646 139.943 155.229C140.254 154.813 140.644 154.461 141.09 154.195L146.428 151.018L148.519 154.529Z" fill="#2F2E41"/>
<path d="M109.862 151.317C107.749 126.438 106.492 103.325 114.215 93.8971L114.275 93.824L127.274 99.0235L127.295 99.07C127.339 99.1655 131.662 108.675 130.654 115.07L133.86 129.819L144.314 147.324C144.398 147.465 144.451 147.622 144.47 147.785C144.489 147.948 144.473 148.113 144.423 148.269C144.373 148.426 144.29 148.57 144.181 148.692C144.071 148.814 143.937 148.911 143.786 148.977L139.243 150.976C138.987 151.088 138.699 151.103 138.432 151.02C138.165 150.936 137.937 150.76 137.79 150.522L126.418 131.978L119.995 117.755C119.96 117.678 119.9 117.614 119.826 117.574C119.751 117.534 119.665 117.519 119.582 117.533C119.498 117.546 119.421 117.587 119.363 117.648C119.304 117.71 119.268 117.789 119.259 117.873L115.698 151.342C115.669 151.627 115.535 151.89 115.322 152.081C115.109 152.273 114.833 152.378 114.547 152.378H111.015C110.726 152.376 110.447 152.266 110.234 152.07C110.02 151.874 109.888 151.606 109.862 151.317Z" fill="#2F2E41"/>
<path d="M114.259 94.0945L114.197 94.0649L114.187 93.9968C113.702 90.5983 114.277 86.8223 115.896 82.7736C116.694 80.7921 118.177 79.1632 120.075 78.1836C121.974 77.2041 124.161 76.9392 126.238 77.4371C127.435 77.732 128.557 78.2721 129.534 79.0234C130.511 79.7746 131.321 80.7206 131.914 81.8013C132.498 82.871 132.855 84.0504 132.96 85.2649C133.065 86.4795 132.916 87.7025 132.524 88.8568C130.483 94.8254 127.835 100.41 127.809 100.466L127.753 100.582L114.259 94.0945Z" fill="#4A3AFF"/>
<path d="M100.077 85.6295C100.39 85.3824 100.752 85.2042 101.138 85.1066C101.525 85.009 101.928 84.9942 102.32 85.0632C102.713 85.1322 103.087 85.2834 103.417 85.5069C103.747 85.7304 104.027 86.0211 104.237 86.3601C104.303 86.4677 104.361 86.5798 104.412 86.6955L116.749 89.189L120.033 81.4701C120.159 81.1752 120.342 80.908 120.571 80.6841C120.8 80.4602 121.072 80.2839 121.369 80.1654C121.667 80.047 121.986 79.9887 122.306 79.994C122.627 79.9993 122.943 80.068 123.237 80.1961C123.53 80.3243 123.796 80.5094 124.018 80.7408C124.239 80.9721 124.413 81.2452 124.529 81.544C124.645 81.8429 124.7 82.1618 124.692 82.4822C124.684 82.8026 124.612 83.1183 124.481 83.4109L119.668 94.1723L119.654 94.1954C119.375 94.577 118.981 94.8584 118.529 94.9979C118.077 95.1373 117.592 95.1275 117.147 94.9697L103.55 90.0969C103.476 90.1539 103.4 90.2071 103.322 90.2562C102.983 90.4662 102.603 90.6022 102.208 90.6553C101.813 90.7083 101.411 90.6773 101.028 90.5642C100.646 90.4511 100.292 90.2585 99.989 89.9989C99.6862 89.7394 99.4417 89.4188 99.2715 89.0582C99.2368 88.9854 99.2055 88.9118 99.1776 88.8373C98.9704 88.276 98.9459 87.6637 99.1074 87.0876C99.2688 86.5116 99.6082 86.0013 100.077 85.6295Z" fill="#FFC3CB"/>
<path d="M148.148 75.5009C147.539 74.4225 146.653 73.4347 145.48 73.0361C143.967 72.5213 142.327 73.0694 140.771 73.4354C139.571 73.7173 138.319 73.8899 137.11 73.652C135.901 73.414 134.735 72.7106 134.185 71.6082C133.376 69.9866 134.058 68.0527 134.008 66.241C133.983 65.2548 133.734 64.2873 133.281 63.4112C132.827 62.5352 132.18 61.7735 131.39 61.1837C130.599 60.5939 129.684 60.1913 128.715 60.0062C127.746 59.8212 126.748 59.8585 125.796 60.1154C124.305 59.6853 122.956 59.6455 122.034 60.7913C120.874 60.7913 119.761 61.2521 118.941 62.0722C118.121 62.8924 117.66 64.0049 117.66 65.1648H121.842C121.644 66.2311 121.87 67.3327 122.473 68.2342C123.212 69.3188 124.495 70.1034 124.742 71.3919C124.982 72.6405 124.133 73.8253 123.243 74.7329C122.353 75.6406 121.32 76.5399 121.042 77.7806C120.871 78.7224 121.065 79.6938 121.583 80.4985C122.1 81.2935 122.742 82.0002 123.483 82.5916C126.824 85.4536 130.794 87.4847 135.07 88.519C138.081 89.244 141.374 89.4319 144.17 88.0983C145.288 87.5648 146.284 86.8071 147.097 85.8722C147.91 84.9373 148.522 83.8453 148.895 82.6638C149.269 81.4824 149.395 80.2369 149.266 79.0047C149.138 77.7725 148.757 76.5798 148.148 75.5009Z" fill="#2F2E41"/>
<path d="M149.092 160H100.211C100.143 160 100.078 159.973 100.029 159.925C99.9812 159.877 99.9541 159.811 99.9541 159.743C99.9541 159.675 99.9812 159.609 100.029 159.561C100.078 159.513 100.143 159.486 100.211 159.486H149.092C149.16 159.486 149.225 159.513 149.274 159.561C149.322 159.609 149.349 159.675 149.349 159.743C149.349 159.811 149.322 159.877 149.274 159.925C149.225 159.973 149.16 160 149.092 160Z" fill="#CCCCCC"/>
</svg>
