<svg width="32" height="32" viewBox="0 0 32 32" fill="none" xmlns="http://www.w3.org/2000/svg">
<g clip-path="url(#clip0_425_16287)">
<g filter="url(#filter0_d_425_16287)">
<path d="M27.325 10.4333C25.9384 4.26 20.5517 1.5 15.8317 1.5C15.8317 1.5 15.8317 1.5 15.8184 1.5C11.1117 1.5 5.73836 4.26 4.33836 10.42C2.76503 17.3 6.97837 23.1267 10.7917 26.8067C15.0815 30.5834 15.3315 30.3334 16.0815 30.8334C16.8315 30.3334 16.5815 30.8334 20.8584 26.8067C24.6717 23.1267 28.885 17.3133 27.325 10.4333ZM19.4984 14.5H16.8317V17.1667C16.8317 17.7133 16.3784 18.1667 15.8317 18.1667C15.285 18.1667 14.8317 17.7133 14.8317 17.1667V14.5H12.165C11.6184 14.5 11.165 14.0467 11.165 13.5C11.165 12.9533 11.6184 12.5 12.165 12.5H14.8317V9.83333C14.8317 9.28667 15.285 8.83333 15.8317 8.83333C16.3784 8.83333 16.8317 9.28667 16.8317 9.83333V12.5H19.4984C20.045 12.5 20.4984 12.9533 20.4984 13.5C20.4984 14.0467 20.045 14.5 19.4984 14.5Z" fill="#22C55E"/>
</g>
<path d="M15.832 18.8335C18.8696 18.8335 21.332 16.3711 21.332 13.3335C21.332 10.2959 18.8696 7.8335 15.832 7.8335C12.7945 7.8335 10.332 10.2959 10.332 13.3335C10.332 16.3711 12.7945 18.8335 15.832 18.8335Z" fill="#FDFDFD"/>
</g>
<defs>
<filter id="filter0_d_425_16287" x="0" y="-2.5" width="31.6582" height="37.3335" filterUnits="userSpaceOnUse" color-interpolation-filters="sRGB">
<feFlood flood-opacity="0" result="BackgroundImageFix"/>
<feColorMatrix in="SourceAlpha" type="matrix" values="0 0 0 0 0 0 0 0 0 0 0 0 0 0 0 0 0 0 127 0" result="hardAlpha"/>
<feOffset/>
<feGaussianBlur stdDeviation="2"/>
<feComposite in2="hardAlpha" operator="out"/>
<feColorMatrix type="matrix" values="0 0 0 0 0 0 0 0 0 0 0 0 0 0 0 0 0 0 0.2 0"/>
<feBlend mode="normal" in2="BackgroundImageFix" result="effect1_dropShadow_425_16287"/>
<feBlend mode="normal" in="SourceGraphic" in2="effect1_dropShadow_425_16287" result="shape"/>
</filter>
<clipPath id="clip0_425_16287">
<rect width="32" height="32" fill="white"/>
</clipPath>
</defs>
</svg>
