<svg width="32" height="32" viewBox="0 0 32 32" fill="none" xmlns="http://www.w3.org/2000/svg">
<path d="M15.9998 29.3334C23.3636 29.3334 29.3332 23.3639 29.3332 16.0001C29.3332 8.63628 23.3636 2.66675 15.9998 2.66675C8.63604 2.66675 2.6665 8.63628 2.6665 16.0001C2.6665 23.3639 8.63604 29.3334 15.9998 29.3334Z" fill="#BAEDCD"/>
<path d="M14.1064 20.7732C13.8398 20.7732 13.5864 20.6666 13.3998 20.4799L9.62643 16.7066C9.23976 16.3199 9.23976 15.6799 9.62643 15.2932C10.0131 14.9066 10.6531 14.9066 11.0398 15.2932L14.1064 18.3599L20.9598 11.5066C21.3464 11.1199 21.9864 11.1199 22.3731 11.5066C22.7598 11.8932 22.7598 12.5332 22.3731 12.9199L14.8131 20.4799C14.6264 20.6666 14.3731 20.7732 14.1064 20.7732Z" fill="#22C55E"/>
</svg>
